<svg width="33" height="32" viewBox="0 0 33 32" fill="none" xmlns="http://www.w3.org/2000/svg">
<path d="M29.0155 9V23C29.0155 23.7956 28.6992 24.5587 28.1363 25.1213C27.5734 25.6839 26.81 26 26.0139 26H6.0033C5.20723 26 4.44376 25.6839 3.88085 25.1213C3.31795 24.5587 3.00171 23.7956 3.00171 23V9M29.0155 9C29.0155 8.20435 28.6992 7.44129 28.1363 6.87868C27.5734 6.31607 26.81 6 26.0139 6H6.0033C5.20723 6 4.44376 6.31607 3.88085 6.87868C3.31795 7.44129 3.00171 8.20435 3.00171 9M29.0155 9V9.324C29.0155 9.83619 28.8844 10.3399 28.6345 10.7871C28.3846 11.2342 28.0244 11.61 27.588 11.8787L17.5828 18.032C17.1094 18.3234 16.5645 18.4777 16.0086 18.4777C15.4527 18.4777 14.9077 18.3234 14.4344 18.032L4.42913 11.88C3.99279 11.6114 3.63254 11.2356 3.38267 10.7884C3.1328 10.3412 3.00165 9.83753 3.00171 9.32533V9" stroke="black" stroke-width="1.5" stroke-linecap="round" stroke-linejoin="round"/>
</svg>
