<svg width="33" height="34" viewBox="0 0 33 34" fill="none" xmlns="http://www.w3.org/2000/svg">
<path d="M12.375 17H17.5312M12.375 21.125H17.5312M12.375 25.25H17.5312M21.6562 26.2812H24.75C25.5705 26.2812 26.3574 25.9553 26.9376 25.3751C27.5178 24.7949 27.8438 24.008 27.8438 23.1875V8.8985C27.8438 7.33787 26.6819 6.01375 25.1268 5.8845C24.6125 5.84185 24.0977 5.80518 23.5826 5.7745M15.6063 5.7745C15.5169 6.06325 15.4688 6.36987 15.4688 6.6875C15.4688 7.25675 15.9307 7.71875 16.5 7.71875H22.6875C22.961 7.71875 23.2233 7.6101 23.4167 7.4167C23.6101 7.22331 23.7188 6.961 23.7188 6.6875C23.7188 6.378 23.6725 6.07024 23.5812 5.7745M15.6063 5.7745C15.8015 5.14296 16.1939 4.59053 16.7259 4.19812C17.2578 3.8057 17.9015 3.59391 18.5625 3.59375H20.625C22.0165 3.59375 23.1921 4.51225 23.5812 5.7745M15.6063 5.7745C15.0893 5.80612 14.575 5.84325 14.0607 5.8845C12.5056 6.01375 11.3438 7.33787 11.3438 8.8985V11.8438M11.3438 11.8438H6.70312C5.84925 11.8438 5.15625 12.5368 5.15625 13.3906V28.8594C5.15625 29.7132 5.84925 30.4062 6.70312 30.4062H20.1094C20.9632 30.4062 21.6562 29.7132 21.6562 28.8594V13.3906C21.6562 12.5368 20.9632 11.8438 20.1094 11.8438H11.3438ZM9.28125 17H9.29225V17.011H9.28125V17ZM9.28125 21.125H9.29225V21.136H9.28125V21.125ZM9.28125 25.25H9.29225V25.261H9.28125V25.25Z" stroke="#0A2D55" stroke-width="2.0625" stroke-linecap="round" stroke-linejoin="round"/>
</svg>
