<svg width="32" height="32" viewBox="0 0 32 32" fill="none" xmlns="http://www.w3.org/2000/svg">
<path d="M21.9927 14V9C21.9927 7.4087 21.3608 5.88258 20.2359 4.75736C19.1111 3.63214 17.5855 3 15.9947 3C14.4039 3 12.8783 3.63214 11.7535 4.75736C10.6286 5.88258 9.99671 7.4087 9.99671 9V14M8.99704 29H22.9924C23.7878 29 24.5506 28.6839 25.113 28.1213C25.6754 27.5587 25.9914 26.7957 25.9914 26V17C25.9914 16.2044 25.6754 15.4413 25.113 14.8787C24.5506 14.3161 23.7878 14 22.9924 14H8.99704C8.20166 14 7.43885 14.3161 6.87643 14.8787C6.31401 15.4413 5.99805 16.2044 5.99805 17V26C5.99805 26.7957 6.31401 27.5587 6.87643 28.1213C7.43885 28.6839 8.20166 29 8.99704 29Z" stroke="black" stroke-width="1.5" stroke-linecap="round" stroke-linejoin="round"/>
</svg>
