<svg width="35" height="35" viewBox="0 0 35 35" fill="none" xmlns="http://www.w3.org/2000/svg">
<g clip-path="url(#clip0_10_712)">
<path d="M6.71289 28.0517L27.8163 6.94824" stroke="black" stroke-width="1.17241" stroke-miterlimit="10"/>
<path d="M9.64393 12.8103C11.2627 12.8103 12.575 11.498 12.575 9.87928C12.575 8.26051 11.2627 6.94824 9.64393 6.94824C8.02516 6.94824 6.71289 8.26051 6.71289 9.87928C6.71289 11.498 8.02516 12.8103 9.64393 12.8103Z" stroke="black" stroke-width="1.17241" stroke-miterlimit="10"/>
<path d="M24.8851 28.0518C26.5039 28.0518 27.8162 26.7395 27.8162 25.1207C27.8162 23.502 26.5039 22.1897 24.8851 22.1897C23.2664 22.1897 21.9541 23.502 21.9541 25.1207C21.9541 26.7395 23.2664 28.0518 24.8851 28.0518Z" stroke="black" stroke-width="1.17241" stroke-miterlimit="10"/>
</g>
<defs>
<clipPath id="clip0_10_712">
<rect width="34" height="34" fill="white" transform="translate(0.264648 0.5)"/>
</clipPath>
</defs>
</svg>
