<svg width="38" height="38" viewBox="0 0 38 38" fill="none" xmlns="http://www.w3.org/2000/svg">
<path d="M9.10416 10.6874C9.10416 9.84757 9.43779 9.04211 10.0317 8.44825C10.6255 7.85438 11.431 7.52075 12.2708 7.52075H25.7292C26.569 7.52075 27.3745 7.85438 27.9683 8.44825C28.5622 9.04211 28.8958 9.84757 28.8958 10.6874V30.4791H9.10416V10.6874Z" stroke="black" stroke-width="1.58333" stroke-linecap="round" stroke-linejoin="round"/>
<path d="M30.4792 30.4792H7.52084" stroke="black" stroke-width="1.58333" stroke-linecap="round" stroke-linejoin="round"/>
<path d="M15.4375 24.9374C15.4375 24.0976 15.7711 23.2921 16.365 22.6982C16.9589 22.1044 17.7643 21.7708 18.6042 21.7708H19.3958C20.2357 21.7708 21.0411 22.1044 21.635 22.6982C22.2289 23.2921 22.5625 24.0976 22.5625 24.9374V30.4791H15.4375V24.9374Z" stroke="black" stroke-width="1.58333" stroke-linecap="round" stroke-linejoin="round"/>
<path d="M15.8333 14.25C15.4134 14.25 15.0107 14.4168 14.7137 14.7137C14.4168 15.0107 14.25 15.4134 14.25 15.8333C14.25 16.2533 14.4168 16.656 14.7137 16.9529C15.0107 17.2499 15.4134 17.4167 15.8333 17.4167C16.2533 17.4167 16.656 17.2499 16.9529 16.9529C17.2499 16.656 17.4167 16.2533 17.4167 15.8333C17.4167 15.4134 17.2499 15.0107 16.9529 14.7137C16.656 14.4168 16.2533 14.25 15.8333 14.25Z" fill="black"/>
<path d="M22.1667 14.25C21.7468 14.25 21.344 14.4168 21.0471 14.7137C20.7502 15.0107 20.5833 15.4134 20.5833 15.8333C20.5833 16.2533 20.7502 16.656 21.0471 16.9529C21.344 17.2499 21.7468 17.4167 22.1667 17.4167C22.5866 17.4167 22.9893 17.2499 23.2863 16.9529C23.5832 16.656 23.75 16.2533 23.75 15.8333C23.75 15.4134 23.5832 15.0107 23.2863 14.7137C22.9893 14.4168 22.5866 14.25 22.1667 14.25Z" fill="black"/>
</svg>
