<svg width="48" height="48" viewBox="0 0 48 48" fill="none" xmlns="http://www.w3.org/2000/svg">
<path d="M37.6875 15.75C37.4128 19.5628 34.5844 22.5 31.5 22.5C28.4156 22.5 25.5825 19.5638 25.3125 15.75C25.0312 11.7834 27.7847 9 31.5 9C35.2153 9 37.9687 11.8556 37.6875 15.75Z" stroke="#0A2D55" stroke-width="3" stroke-linecap="round" stroke-linejoin="round"/>
<path d="M31.5001 28.5C25.3904 28.5 19.5151 31.5347 18.0432 37.4447C17.8482 38.2266 18.3386 39 19.142 39H43.8592C44.6626 39 45.1501 38.2266 44.9579 37.4447C43.4861 31.44 37.6107 28.5 31.5001 28.5Z" stroke="#0A2D55" stroke-width="3" stroke-miterlimit="10"/>
<path d="M18.7499 17.4319C18.5305 20.4769 16.2449 22.875 13.7812 22.875C11.3174 22.875 9.02804 20.4778 8.81242 17.4319C8.58836 14.2641 10.813 12 13.7812 12C16.7493 12 18.974 14.3222 18.7499 17.4319Z" stroke="#0A2D55" stroke-width="3" stroke-linecap="round" stroke-linejoin="round"/>
<path d="M19.3124 28.6875C17.6203 27.9122 15.7565 27.6141 13.7812 27.6141C8.90619 27.6141 4.20932 30.0375 3.03275 34.7578C2.87807 35.3822 3.26994 36 3.91119 36H14.4374" stroke="#0A2D55" stroke-width="3" stroke-miterlimit="10" stroke-linecap="round"/>
</svg>
