<svg width="35" height="32" viewBox="0 0 35 32" fill="none" xmlns="http://www.w3.org/2000/svg">
<path d="M17.1326 8V24M12.8494 20.2427L14.1044 21.1213C15.7762 22.2933 18.4875 22.2933 20.1607 21.1213C21.834 19.9493 21.834 18.0507 20.1607 16.8787C19.3255 16.292 18.229 16 17.1326 16C16.0975 16 15.0624 15.7067 14.2729 15.1213C12.6938 13.9493 12.6938 12.0507 14.2729 10.8787C15.8519 9.70667 18.4132 9.70667 19.9923 10.8787L20.5848 11.3187M29.9819 16C29.9819 17.5759 29.6496 19.1363 29.0038 20.5922C28.3581 22.0481 27.4116 23.371 26.2184 24.4853C25.0253 25.5996 23.6088 26.4835 22.0498 27.0866C20.4909 27.6896 18.82 28 17.1326 28C15.4452 28 13.7743 27.6896 12.2153 27.0866C10.6564 26.4835 9.23987 25.5996 8.04669 24.4853C6.85352 23.371 5.90704 22.0481 5.2613 20.5922C4.61556 19.1363 4.2832 17.5759 4.2832 16C4.2832 12.8174 5.63697 9.76516 8.04669 7.51472C10.4564 5.26428 13.7247 4 17.1326 4C20.5404 4 23.8087 5.26428 26.2184 7.51472C28.6282 9.76516 29.9819 12.8174 29.9819 16Z" stroke="black" stroke-width="1.5" stroke-linecap="round" stroke-linejoin="round"/>
</svg>
