<svg width="34" height="34" viewBox="0 0 34 34" fill="none" xmlns="http://www.w3.org/2000/svg">
<path d="M25.4524 26.5268C24.4634 25.2162 23.1838 24.1534 21.7145 23.422C20.2452 22.6907 18.6263 22.3108 16.9853 22.3123C15.3443 22.3108 13.7253 22.6907 12.256 23.422C10.7867 24.1534 9.50713 25.2162 8.51811 26.5268M25.451 26.5268C27.3809 24.8087 28.7435 22.544 29.3579 20.033C29.9723 17.5221 29.8095 14.8835 28.8912 12.4673C27.9728 10.051 26.3423 7.97128 24.2159 6.5038C22.0894 5.03633 19.5675 4.25049 16.9846 4.25049C14.4016 4.25049 11.8797 5.03633 9.75322 6.5038C7.62677 7.97128 5.99626 10.051 5.07793 12.4673C4.15961 14.8835 3.99685 17.5221 4.61124 20.033C5.22564 22.544 6.58816 24.8087 8.51811 26.5268M25.451 26.5268C23.1212 28.6067 20.1072 29.7541 16.9853 29.7496C13.8628 29.7544 10.8483 28.607 8.51811 26.5268M21.2316 13.8124C21.2316 14.9396 20.7842 16.0205 19.9879 16.8176C19.1915 17.6146 18.1115 18.0623 16.9853 18.0623C15.8591 18.0623 14.779 17.6146 13.9827 16.8176C13.1863 16.0205 12.7389 14.9396 12.7389 13.8124C12.7389 12.6853 13.1863 11.6043 13.9827 10.8073C14.779 10.0102 15.8591 9.56248 16.9853 9.56248C18.1115 9.56248 19.1915 10.0102 19.9879 10.8073C20.7842 11.6043 21.2316 12.6853 21.2316 13.8124V13.8124Z" stroke="black" stroke-width="1.5" stroke-linecap="round" stroke-linejoin="round"/>
</svg>
