<svg width="32" height="32" viewBox="0 0 32 32" fill="none" xmlns="http://www.w3.org/2000/svg">
<path d="M12.6794 4H6.95726C6.16647 4 5.40807 4.31607 4.8489 4.87868C4.28973 5.44129 3.97559 6.20435 3.97559 7V12.7573C3.97559 13.5533 4.28966 14.3173 4.84888 14.8787L17.5455 27.6533C18.4718 28.5853 19.9043 28.816 21.0003 28.0933C23.7588 26.2755 26.115 23.9048 27.9217 21.1293C28.64 20.0267 28.4107 18.5853 27.4844 17.6533L14.7891 4.88C14.5122 4.60103 14.1833 4.37971 13.8213 4.22871C13.4593 4.07772 13.0713 4 12.6794 4Z" stroke="black" stroke-width="1.5" stroke-linecap="round" stroke-linejoin="round"/>
<path d="M7.95117 8H7.96184V8.01067H7.95117V8Z" stroke="black" stroke-width="1.5" stroke-linecap="round" stroke-linejoin="round"/>
</svg>
