<svg width="33" height="33" viewBox="0 0 33 33" fill="none" xmlns="http://www.w3.org/2000/svg">
<path d="M4.125 18.0469C4.125 17.193 4.818 16.5 5.67188 16.5H8.76562C9.6195 16.5 10.3125 17.193 10.3125 18.0469V27.3281C10.3125 28.182 9.6195 28.875 8.76562 28.875H5.67188C5.26162 28.875 4.86816 28.712 4.57807 28.4219C4.28797 28.1318 4.125 27.7384 4.125 27.3281V18.0469ZM13.4062 11.8594C13.4062 11.0055 14.0993 10.3125 14.9531 10.3125H18.0469C18.9007 10.3125 19.5938 11.0055 19.5938 11.8594V27.3281C19.5938 28.182 18.9007 28.875 18.0469 28.875H14.9531C14.5429 28.875 14.1494 28.712 13.8593 28.4219C13.5692 28.1318 13.4062 27.7384 13.4062 27.3281V11.8594ZM22.6875 5.67188C22.6875 4.818 23.3805 4.125 24.2344 4.125H27.3281C28.182 4.125 28.875 4.818 28.875 5.67188V27.3281C28.875 28.182 28.182 28.875 27.3281 28.875H24.2344C23.8241 28.875 23.4307 28.712 23.1406 28.4219C22.8505 28.1318 22.6875 27.7384 22.6875 27.3281V5.67188Z" stroke="black" stroke-width="2.0625" stroke-linecap="round" stroke-linejoin="round"/>
</svg>
