<svg width="48" height="48" viewBox="0 0 48 48" fill="none" xmlns="http://www.w3.org/2000/svg">
<path d="M41.75 14H6.25C3.906 14 2 15.794 2 18V30C2 32.206 3.906 34 6.25 34H41.75C44.094 34 46 32.206 46 30V18C46 15.794 44.094 14 41.75 14ZM41.75 30H6.25C6.136 30 6.058 29.968 6.024 29.968C6.01 29.968 6.002 29.972 6 29.984L5.976 18.092C5.99 18.072 6.08 18 6.25 18H10V24H14V18H18V26H22V18H26V24H30V18H34V26H38V18H41.75C41.908 18.002 41.994 18.056 42 18.016L42.024 29.908C42.01 29.928 41.92 30 41.75 30Z" fill="white"/>
</svg>
