<svg width="48" height="48" viewBox="0 0 48 48" fill="none" xmlns="http://www.w3.org/2000/svg">
<path d="M42 32.0034V15.9947C41.9994 15.4707 41.8615 14.9561 41.6001 14.5019C41.3388 14.0478 40.963 13.67 40.5103 13.4062L26.2603 5.11312C25.5737 4.71342 24.7935 4.50284 23.9991 4.50284C23.2046 4.50284 22.4244 4.71342 21.7378 5.11312L7.48969 13.4062C7.03696 13.67 6.66122 14.0478 6.39986 14.5019C6.1385 14.9561 6.00064 15.4707 6 15.9947V32.0034C6.00031 32.5277 6.13802 33.0428 6.39939 33.4973C6.66077 33.9518 7.03669 34.3298 7.48969 34.5937L21.7397 42.8869C22.4264 43.286 23.2066 43.4963 24.0009 43.4963C24.7953 43.4963 25.5754 43.286 26.2622 42.8869L40.5122 34.5937C40.9648 34.3296 41.3404 33.9514 41.6014 33.4969C41.8625 33.0425 41.9999 32.5275 42 32.0034Z" stroke="white" stroke-width="3" stroke-linecap="round" stroke-linejoin="round"/>
<path d="M6.46875 14.4366L24 24.7491L41.5312 14.4366M24 43.4991V24.7491" stroke="white" stroke-width="3" stroke-linecap="round" stroke-linejoin="round"/>
</svg>
