<svg width="32" height="32" viewBox="0 0 32 32" fill="none" xmlns="http://www.w3.org/2000/svg">
<path d="M3 8.60303C3 19.6484 11.9547 28.603 23 28.603H26C26.7957 28.603 27.5587 28.287 28.1213 27.7243C28.6839 27.1617 29 26.3987 29 25.603V23.7737C29 23.0857 28.532 22.4857 27.864 22.319L21.9667 20.8444C21.38 20.6977 20.764 20.9177 20.4027 21.4004L19.1093 23.1244C18.7333 23.6257 18.084 23.847 17.496 23.631C15.3132 22.8285 13.3309 21.5611 11.6864 19.9167C10.0419 18.2722 8.7745 16.2899 7.972 14.107C7.756 13.519 7.97733 12.8697 8.47867 12.4937L10.2027 11.2004C10.6867 10.839 10.9053 10.2217 10.7587 9.63636L9.284 3.73903C9.20285 3.41462 9.01563 3.12663 8.75207 2.92081C8.48851 2.71499 8.16374 2.60314 7.82933 2.60303H6C5.20435 2.60303 4.44129 2.9191 3.87868 3.48171C3.31607 4.04432 3 4.80738 3 5.60303V8.60303Z" stroke="black" stroke-width="1.5" stroke-linecap="round" stroke-linejoin="round"/>
</svg>
