<svg width="30" height="31" viewBox="0 0 30 31" fill="none" xmlns="http://www.w3.org/2000/svg">
<path d="M17.8125 8.10875C17.8125 7.665 18.045 7.26375 18.3138 6.91C18.59 6.5475 18.75 6.1175 18.75 5.65625C18.75 4.36125 17.4913 3.3125 15.9375 3.3125C14.3837 3.3125 13.125 4.3625 13.125 5.65625C13.125 6.1175 13.285 6.5475 13.5612 6.91C13.83 7.26375 14.0625 7.665 14.0625 8.10875C14.063 8.21593 14.042 8.32214 14.0007 8.42104C13.9594 8.51995 13.8987 8.60955 13.8221 8.68453C13.7455 8.7595 13.6546 8.81831 13.5548 8.85747C13.455 8.89664 13.3484 8.91535 13.2413 8.9125C11.5021 8.8624 9.76588 8.73728 8.0375 8.5375C8.27 10.5537 8.40375 12.6 8.43125 14.6712C8.43241 14.7799 8.41197 14.8877 8.37113 14.9883C8.33028 15.089 8.26984 15.1805 8.19331 15.2576C8.11679 15.3347 8.02571 15.3959 7.92535 15.4375C7.825 15.4791 7.71738 15.5003 7.60875 15.5V15.5C7.165 15.5 6.76375 15.2675 6.41 14.9987C6.05171 14.7189 5.61087 14.5655 5.15625 14.5625C3.86125 14.5625 2.8125 15.8212 2.8125 17.375C2.8125 18.9288 3.8625 20.1875 5.15625 20.1875C5.6175 20.1875 6.0475 20.0275 6.41 19.7513C6.76375 19.4825 7.165 19.25 7.60875 19.25C7.99625 19.25 8.3025 19.575 8.27375 19.9625C8.11827 22.0819 7.85039 24.1915 7.47125 26.2825C9.36875 26.52 11.2938 26.6687 13.2413 26.725C13.3484 26.7278 13.455 26.7091 13.5548 26.67C13.6546 26.6308 13.7455 26.572 13.8221 26.497C13.8987 26.4221 13.9594 26.3325 14.0007 26.2335C14.042 26.1346 14.063 26.0284 14.0625 25.9212V25.9212C14.0625 25.4775 13.83 25.0763 13.5612 24.7225C13.2814 24.3642 13.128 23.9234 13.125 23.4688C13.125 22.175 14.385 21.125 15.9375 21.125C17.4913 21.125 18.75 22.175 18.75 23.4688C18.75 23.93 18.59 24.36 18.3138 24.7225C18.045 25.0763 17.8138 25.4775 17.8138 25.9212C17.8138 26.3375 18.16 26.67 18.5763 26.6462C20.8506 26.5125 23.1155 26.2496 25.36 25.8588C25.6996 23.9065 25.9424 21.9387 26.0875 19.9625C26.094 19.8712 26.0816 19.7794 26.0511 19.6931C26.0205 19.6068 25.9725 19.5277 25.9099 19.4608C25.8474 19.3939 25.7717 19.3407 25.6876 19.3044C25.6035 19.2681 25.5128 19.2496 25.4212 19.25C24.9775 19.25 24.5763 19.4825 24.2225 19.7513C23.86 20.0275 23.43 20.1875 22.9688 20.1875C21.675 20.1875 20.625 18.9288 20.625 17.375C20.625 15.8212 21.675 14.5625 22.9688 14.5625C23.4313 14.5625 23.86 14.7225 24.2225 14.9987C24.5763 15.2675 24.9775 15.5 25.4225 15.5C25.5311 15.5003 25.6388 15.4791 25.7391 15.4375C25.8395 15.3959 25.9305 15.3347 26.0071 15.2576C26.0836 15.1805 26.144 15.089 26.1849 14.9883C26.2257 14.8877 26.2462 14.7799 26.245 14.6712C26.2149 12.4311 26.0605 10.1943 25.7825 7.97125C23.425 8.39875 21.02 8.68875 18.575 8.8325C18.4766 8.83796 18.3781 8.82323 18.2856 8.78921C18.1931 8.75519 18.1086 8.70262 18.0371 8.63471C17.9657 8.5668 17.9089 8.48499 17.8703 8.39433C17.8317 8.30366 17.812 8.20605 17.8125 8.1075V8.1075V8.10875Z" stroke="black" stroke-width="1.875" stroke-linecap="round" stroke-linejoin="round"/>
</svg>
