<svg width="48" height="48" viewBox="0 0 48 48" fill="none" xmlns="http://www.w3.org/2000/svg">
<path d="M9 45H27C27.7954 44.9992 28.558 44.6829 29.1204 44.1204C29.6829 43.558 29.9992 42.7954 30 42V37.5H27V42H9V6H27V10.5H30V6C29.9992 5.20459 29.6829 4.44199 29.1204 3.87956C28.558 3.31712 27.7954 3.00079 27 3H9C8.20459 3.00079 7.44199 3.31712 6.87956 3.87956C6.31712 4.44199 6.00079 5.20459 6 6V42C6.00079 42.7954 6.31712 43.558 6.87956 44.1204C7.44199 44.6829 8.20459 44.9992 9 45Z" fill="#F8F8F8"/>
<path d="M30.879 30.879L36.258 25.5H15V22.5H36.258L30.879 17.121L33 15L42 24L33 33L30.879 30.879Z" fill="#F8F8F8"/>
</svg>
