<svg width="48" height="48" viewBox="0 0 48 48" fill="none" xmlns="http://www.w3.org/2000/svg">
<path d="M37.6875 15.75C37.4128 19.5628 34.5844 22.5 31.5 22.5C28.4156 22.5 25.5825 19.5638 25.3125 15.75C25.0312 11.7834 27.7847 9 31.5 9C35.2153 9 37.9687 11.8556 37.6875 15.75Z" stroke="white" stroke-width="3" stroke-linecap="round" stroke-linejoin="round"/>
<path d="M31.5 28.5C25.3903 28.5 19.515 31.5347 18.0431 37.4447C17.8481 38.2266 18.3384 39 19.1419 39H43.8591C44.6625 39 45.15 38.2266 44.9578 37.4447C43.4859 31.44 37.6106 28.5 31.5 28.5Z" stroke="white" stroke-width="3" stroke-miterlimit="10"/>
<path d="M18.75 17.4319C18.5306 20.4769 16.245 22.875 13.7812 22.875C11.3175 22.875 9.0281 20.4778 8.81248 17.4319C8.58842 14.2641 10.8131 12 13.7812 12C16.7494 12 18.974 14.3222 18.75 17.4319Z" stroke="white" stroke-width="3" stroke-linecap="round" stroke-linejoin="round"/>
<path d="M19.3125 28.6875C17.6203 27.9122 15.7566 27.6141 13.7813 27.6141C8.90625 27.6141 4.20938 30.0375 3.03281 34.7578C2.87813 35.3822 3.27 36 3.91125 36H14.4375" stroke="white" stroke-width="3" stroke-miterlimit="10" stroke-linecap="round"/>
</svg>
