<svg width="35" height="34" viewBox="0 0 35 34" fill="none" xmlns="http://www.w3.org/2000/svg">
<path d="M26.2172 26.5269C25.2282 25.2163 23.9486 24.1535 22.4793 23.4221C21.0099 22.6908 19.391 22.3109 17.75 22.3124C16.109 22.3109 14.4901 22.6908 13.0208 23.4221C11.5515 24.1535 10.2719 25.2163 9.28288 26.5269M26.2158 26.5269C28.1457 24.8088 29.5082 22.5441 30.1226 20.0331C30.737 17.5222 30.5743 14.8836 29.6559 12.4674C28.7376 10.0512 27.1071 7.9714 24.9806 6.50393C22.8542 5.03645 20.3323 4.25061 17.7493 4.25061C15.1664 4.25061 12.6444 5.03645 10.518 6.50393C8.39154 7.9714 6.76103 10.0512 5.8427 12.4674C4.92438 14.8836 4.76162 17.5222 5.37601 20.0331C5.99041 22.5441 7.35293 24.8088 9.28288 26.5269M26.2158 26.5269C23.886 28.6068 20.872 29.7542 17.75 29.7498C14.6276 29.7546 11.613 28.6071 9.28288 26.5269M21.9963 13.8125C21.9963 14.9397 21.549 16.0207 20.7526 16.8177C19.9563 17.6147 18.8762 18.0625 17.75 18.0625C16.6238 18.0625 15.5438 17.6147 14.7474 16.8177C13.9511 16.0207 13.5037 14.9397 13.5037 13.8125C13.5037 12.6854 13.9511 11.6044 14.7474 10.8074C15.5438 10.0104 16.6238 9.5626 17.75 9.5626C18.8762 9.5626 19.9563 10.0104 20.7526 10.8074C21.549 11.6044 21.9963 12.6854 21.9963 13.8125V13.8125Z" stroke="black" stroke-width="1.5" stroke-linecap="round" stroke-linejoin="round"/>
</svg>
