<svg width="33" height="33" viewBox="0 0 33 33" fill="none" xmlns="http://www.w3.org/2000/svg">
<path d="M28.875 22.0024V10.9963C28.8746 10.6361 28.7798 10.2823 28.6001 9.97007C28.4204 9.65786 28.1621 9.39815 27.8508 9.2168L18.054 3.51527C17.582 3.24048 17.0455 3.0957 16.4994 3.0957C15.9532 3.0957 15.4168 3.24048 14.9447 3.51527L5.14916 9.2168C4.83791 9.39815 4.57959 9.65786 4.3999 9.97007C4.22022 10.2823 4.12544 10.6361 4.125 10.9963V22.0024C4.12521 22.3628 4.21989 22.7169 4.39958 23.0294C4.57928 23.3418 4.83772 23.6017 5.14916 23.7832L14.946 29.4847C15.4182 29.7591 15.9545 29.9037 16.5006 29.9037C17.0467 29.9037 17.5831 29.7591 18.0553 29.4847L27.8521 23.7832C28.1633 23.6016 28.4215 23.3416 28.601 23.0291C28.7804 22.7167 28.8749 22.3627 28.875 22.0024Z" stroke="#0A2D55" stroke-width="2.0625" stroke-linecap="round" stroke-linejoin="round"/>
<path d="M4.44727 9.92514L16.5 17.015L28.5527 9.92514M16.5 29.9056V17.015" stroke="#0A2D55" stroke-width="2.0625" stroke-linecap="round" stroke-linejoin="round"/>
</svg>
