<svg width="32" height="32" viewBox="0 0 32 32" fill="none" xmlns="http://www.w3.org/2000/svg">
<path d="M21 4H23C23.7956 4 24.5587 4.31607 25.1213 4.87868C25.6839 5.44129 26 6.20435 26 7V27C26 27.7956 25.6839 28.5587 25.1213 29.1213C24.5587 29.6839 23.7956 30 23 30H9C8.20435 30 7.44129 29.6839 6.87868 29.1213C6.31607 28.5587 6 27.7956 6 27V7C6 6.20435 6.31607 5.44129 6.87868 4.87868C7.44129 4.31607 8.20435 4 9 4H11" stroke="black" stroke-width="2" stroke-linejoin="round"/>
<path d="M19.3669 2H12.6331C11.7312 2 11 2.73118 11 3.63313V4.36688C11 5.26883 11.7312 6 12.6331 6H19.3669C20.2688 6 21 5.26883 21 4.36688V3.63313C21 2.73118 20.2688 2 19.3669 2Z" stroke="black" stroke-width="2" stroke-linejoin="round"/>
</svg>
