<svg width="33" height="33" viewBox="0 0 33 33" fill="none" xmlns="http://www.w3.org/2000/svg">
<g clip-path="url(#clip0_59_212)">
<path fill-rule="evenodd" clip-rule="evenodd" d="M3.09375 16.5C3.09373 13.9804 3.80374 11.5118 5.14238 9.37728C6.48101 7.24272 8.39407 5.5286 10.6622 4.43144C12.9304 3.33429 15.4618 2.89851 17.9663 3.17409C20.4707 3.44966 22.8469 4.42542 24.8222 5.9895L5.9895 24.8222C4.11008 22.4559 3.08917 19.5219 3.09375 16.5V16.5ZM8.17781 27.0105C10.7553 29.0515 13.9929 30.0743 17.2751 29.8843C20.5573 29.6943 23.6553 28.3048 25.9801 25.9801C28.3048 23.6553 29.6943 20.5573 29.8843 17.2751C30.0743 13.9929 29.0515 10.7553 27.0105 8.17781L8.17781 27.0105ZM16.5 0C12.1239 0 7.92709 1.73839 4.83274 4.83274C1.73839 7.92709 0 12.1239 0 16.5C0 20.8761 1.73839 25.0729 4.83274 28.1673C7.92709 31.2616 12.1239 33 16.5 33C20.8761 33 25.0729 31.2616 28.1673 28.1673C31.2616 25.0729 33 20.8761 33 16.5C33 12.1239 31.2616 7.92709 28.1673 4.83274C25.0729 1.73839 20.8761 0 16.5 0V0Z" fill="black"/>
</g>
<defs>
<clipPath id="clip0_59_212">
<rect width="33" height="33" fill="white"/>
</clipPath>
</defs>
</svg>
