<svg width="33" height="32" viewBox="0 0 33 32" fill="none" xmlns="http://www.w3.org/2000/svg">
<path d="M3.5 8.60303C3.5 19.6484 12.4547 28.603 23.5 28.603H26.5C27.2957 28.603 28.0587 28.287 28.6213 27.7243C29.1839 27.1617 29.5 26.3987 29.5 25.603V23.7737C29.5 23.0857 29.032 22.4857 28.364 22.319L22.4667 20.8444C21.88 20.6977 21.264 20.9177 20.9027 21.4004L19.6093 23.1244C19.2333 23.6257 18.584 23.847 17.996 23.631C15.8132 22.8285 13.8309 21.5611 12.1864 19.9167C10.5419 18.2722 9.2745 16.2899 8.472 14.107C8.256 13.519 8.47733 12.8697 8.97867 12.4937L10.7027 11.2004C11.1867 10.839 11.4053 10.2217 11.2587 9.63636L9.784 3.73903C9.70285 3.41462 9.51563 3.12663 9.25207 2.92081C8.98851 2.71499 8.66374 2.60314 8.32933 2.60303H6.5C5.70435 2.60303 4.94129 2.9191 4.37868 3.48171C3.81607 4.04432 3.5 4.80738 3.5 5.60303V8.60303Z" stroke="black" stroke-width="1.5" stroke-linecap="round" stroke-linejoin="round"/>
</svg>
