<svg width="32" height="32" viewBox="0 0 32 32" fill="none" xmlns="http://www.w3.org/2000/svg">
<g clip-path="url(#clip0_59_214)">
<path fill-rule="evenodd" clip-rule="evenodd" d="M3 16C3 12.5522 4.36964 9.24558 6.80761 6.80761C9.24558 4.36964 12.5522 3 16 3C19.4478 3 22.7544 4.36964 25.1924 6.80761C27.6304 9.24558 29 12.5522 29 16C29 19.4478 27.6304 22.7544 25.1924 25.1924C22.7544 27.6304 19.4478 29 16 29C12.5522 29 9.24558 27.6304 6.80761 25.1924C4.36964 22.7544 3 19.4478 3 16V16ZM0 16C0 11.7565 1.68571 7.68687 4.68629 4.68629C7.68687 1.68571 11.7565 0 16 0C20.2435 0 24.3131 1.68571 27.3137 4.68629C30.3143 7.68687 32 11.7565 32 16C32 20.2435 30.3143 24.3131 27.3137 27.3137C24.3131 30.3143 20.2435 32 16 32C11.7565 32 7.68687 30.3143 4.68629 27.3137C1.68571 24.3131 0 20.2435 0 16V16ZM23.56 12.56C23.825 12.2757 23.9692 11.8996 23.9624 11.511C23.9555 11.1224 23.7981 10.7516 23.5232 10.4768C23.2484 10.2019 22.8776 10.0445 22.489 10.0377C22.1004 10.0308 21.7244 10.175 21.44 10.44L13.5 18.38L10.56 15.44C10.2757 15.175 9.89956 15.0308 9.51095 15.0377C9.12235 15.0445 8.75158 15.2019 8.47676 15.4768C8.20193 15.7516 8.04451 16.1224 8.03765 16.511C8.03079 16.8996 8.17504 17.2756 8.44 17.56L12.44 21.56C12.7213 21.8409 13.1025 21.9987 13.5 21.9987C13.8975 21.9987 14.2787 21.8409 14.56 21.56L23.56 12.56V12.56Z" fill="black"/>
</g>
<defs>
<clipPath id="clip0_59_214">
<rect width="32" height="32" fill="white"/>
</clipPath>
</defs>
</svg>
