<svg width="48" height="48" viewBox="0 0 48 48" fill="none" xmlns="http://www.w3.org/2000/svg">
<path d="M18 24H25.5M18 30H25.5M18 36H25.5M31.5 37.5H36C37.1935 37.5 38.3381 37.0259 39.182 36.182C40.0259 35.3381 40.5 34.1935 40.5 33V12.216C40.5 9.946 38.81 8.02 36.548 7.832C35.8 7.76996 35.0513 7.71663 34.302 7.672M22.7 7.672C22.57 8.092 22.5 8.538 22.5 9C22.5 9.828 23.172 10.5 24 10.5H33C33.3978 10.5 33.7794 10.342 34.0607 10.0607C34.342 9.77936 34.5 9.39782 34.5 9C34.5001 8.54982 34.4327 8.10217 34.3 7.672M22.7 7.672C22.9841 6.7534 23.5548 5.94987 24.3285 5.37908C25.1023 4.80829 26.0385 4.50023 27 4.5H30C32.024 4.5 33.734 5.836 34.3 7.672M22.7 7.672C21.948 7.718 21.2 7.772 20.452 7.832C18.19 8.02 16.5 9.946 16.5 12.216V16.5M16.5 16.5H9.75C8.508 16.5 7.5 17.508 7.5 18.75V41.25C7.5 42.492 8.508 43.5 9.75 43.5H29.25C30.492 43.5 31.5 42.492 31.5 41.25V18.75C31.5 17.508 30.492 16.5 29.25 16.5H16.5ZM13.5 24H13.516V24.016H13.5V24ZM13.5 30H13.516V30.016H13.5V30ZM13.5 36H13.516V36.016H13.5V36Z" stroke="white" stroke-width="3" stroke-linecap="round" stroke-linejoin="round"/>
</svg>
