<svg width="19" height="22" viewBox="0 0 19 22" fill="none" xmlns="http://www.w3.org/2000/svg">
<path d="M11.99 8L11.644 17M6.856 17L6.51 8M16.478 4.79C16.82 4.842 17.16 4.897 17.5 4.956M16.478 4.791L15.41 18.673C15.3664 19.2382 15.1111 19.7662 14.695 20.1512C14.279 20.5363 13.7329 20.7502 13.166 20.75H5.334C4.7671 20.7502 4.22102 20.5363 3.80498 20.1512C3.38894 19.7662 3.13359 19.2382 3.09 18.673L2.022 4.79M16.478 4.79C15.3239 4.61552 14.1638 4.4831 13 4.393M1 4.955C1.34 4.896 1.68 4.841 2.022 4.79M2.022 4.79C3.17613 4.61552 4.33623 4.4831 5.5 4.393M13 4.393V3.477C13 2.297 12.09 1.313 10.91 1.276C9.80362 1.24064 8.69638 1.24064 7.59 1.276C6.41 1.313 5.5 2.298 5.5 3.477V4.393M13 4.393C10.5037 4.20008 7.99628 4.20008 5.5 4.393" stroke="#FF1111" stroke-width="1.5" stroke-linecap="round" stroke-linejoin="round"/>
</svg>
