<svg width="34" height="35" viewBox="0 0 34 35" fill="none" xmlns="http://www.w3.org/2000/svg">
<path d="M3.1875 10.9668C3.1875 10.087 3.9015 9.37305 4.78125 9.37305H13.2812C14.161 9.37305 14.875 10.087 14.875 10.9668V16.2793C14.875 17.159 14.161 17.873 13.2812 17.873H4.78125C4.35856 17.873 3.95318 17.7051 3.6543 17.4062C3.35541 17.1074 3.1875 16.702 3.1875 16.2793V10.9668ZM20.1875 13.0918C20.1875 12.212 20.9015 11.498 21.7812 11.498H29.2187C30.0985 11.498 30.8125 12.212 30.8125 13.0918V24.7793C30.8125 25.659 30.0985 26.373 29.2187 26.373H21.7812C21.3586 26.373 20.9532 26.2051 20.6543 25.9062C20.3554 25.6074 20.1875 25.202 20.1875 24.7793V13.0918ZM5.3125 23.7168C5.3125 22.837 6.0265 22.123 6.90625 22.123H14.3437C15.2235 22.123 15.9375 22.837 15.9375 23.7168V26.9043C15.9375 27.784 15.2235 28.498 14.3437 28.498H6.90625C6.48356 28.498 6.07818 28.3301 5.7793 28.0312C5.48041 27.7324 5.3125 27.327 5.3125 26.9043V23.7168Z" stroke="black" stroke-width="1.5" stroke-linecap="round" stroke-linejoin="round"/>
</svg>
