<svg width="33" height="32" viewBox="0 0 33 32" fill="none" xmlns="http://www.w3.org/2000/svg">
<path d="M21.5 8C21.5 9.32608 20.9732 10.5979 20.0355 11.5355C19.0979 12.4732 17.8261 13 16.5 13C15.1739 13 13.9022 12.4732 12.9645 11.5355C12.0268 10.5979 11.5 9.32608 11.5 8C11.5 6.67392 12.0268 5.40215 12.9645 4.46447C13.9022 3.52678 15.1739 3 16.5 3C17.8261 3 19.0979 3.52678 20.0355 4.46447C20.9732 5.40215 21.5 6.67392 21.5 8V8ZM6.50134 26.824C6.54419 24.2005 7.61646 21.6989 9.48691 19.8587C11.3574 18.0186 13.8761 16.9873 16.5 16.9873C19.1239 16.9873 21.6427 18.0186 23.5131 19.8587C25.3836 21.6989 26.4558 24.2005 26.4987 26.824C23.3619 28.2623 19.9509 29.0047 16.5 29C12.932 29 9.54534 28.2213 6.50134 26.824Z" stroke="black" stroke-width="1.5" stroke-linecap="round" stroke-linejoin="round"/>
</svg>
