<svg width="32" height="32" viewBox="0 0 32 32" fill="none" xmlns="http://www.w3.org/2000/svg">
<path d="M27.8332 9.33331H4.16658C2.60392 9.33331 1.33325 10.5293 1.33325 12V20C1.33325 21.4706 2.60392 22.6666 4.16658 22.6666H27.8332C29.3959 22.6666 30.6666 21.4706 30.6666 20V12C30.6666 10.5293 29.3959 9.33331 27.8332 9.33331ZM27.8332 20H4.16658C4.09058 20 4.03858 19.9786 4.01592 19.9786C4.00658 19.9786 4.00125 19.9813 3.99992 19.9893L3.98392 12.0613C3.99325 12.048 4.05325 12 4.16658 12H6.66658V16H9.33325V12H11.9999V17.3333H14.6666V12H17.3333V16H19.9999V12H22.6666V17.3333H25.3332V12H27.8332C27.9386 12.0013 27.9959 12.0373 27.9999 12.0106L28.0159 19.9386C28.0066 19.952 27.9466 20 27.8332 20Z" fill="black"/>
</svg>
