<svg width="32" height="32" viewBox="0 0 32 32" fill="none" xmlns="http://www.w3.org/2000/svg">
<path d="M29.3238 10.6C29.3217 10.5037 29.3088 10.408 29.2852 10.3147C29.2758 10.2813 29.2572 10.2493 29.2452 10.216C29.2172 10.14 29.1918 10.0653 29.1518 9.99601C29.1305 9.96001 29.1012 9.93068 29.0758 9.89601C29.0332 9.83601 28.9918 9.77468 28.9398 9.72268C28.9092 9.69334 28.8692 9.66934 28.8358 9.64134C28.7838 9.59868 28.7358 9.55201 28.6758 9.51601C28.6705 9.51201 28.6638 9.51201 28.6572 9.50801L28.6465 9.50001L16.6745 2.84668C16.4767 2.73698 16.2542 2.67931 16.028 2.67908C15.8018 2.67884 15.5792 2.73605 15.3812 2.84534L3.35317 9.49868C3.34917 9.50268 3.34517 9.50801 3.3385 9.51201L3.32517 9.51734C3.2785 9.54401 3.24384 9.58268 3.19984 9.61468C3.15184 9.65068 3.10117 9.68268 3.0585 9.72401C3.0185 9.76534 2.98784 9.81334 2.95317 9.86001C2.91717 9.90668 2.87717 9.94801 2.84784 9.99868C2.81317 10.056 2.7945 10.1213 2.76917 10.184C2.7505 10.228 2.7265 10.2693 2.7145 10.3173C2.69148 10.409 2.67851 10.5029 2.67584 10.5973C2.6745 10.62 2.6665 10.64 2.6665 10.664V21.3333C2.6665 21.8173 2.92917 22.264 3.35317 22.4987L15.3238 29.148L15.3252 29.1493L15.3278 29.1507L15.3545 29.1653C15.4118 29.1973 15.4745 29.2147 15.5345 29.2373C15.5772 29.2547 15.6185 29.2773 15.6638 29.2893C15.8851 29.3464 16.1172 29.3464 16.3385 29.2893C16.3825 29.2773 16.4238 29.2547 16.4678 29.2373C16.5278 29.2147 16.5905 29.1987 16.6478 29.1653L16.6745 29.1507L16.6772 29.1493L16.6785 29.148L28.6492 22.4987C29.0705 22.264 29.3332 21.8173 29.3332 21.3333V10.664C29.3332 10.6413 29.3252 10.6227 29.3238 10.6V10.6ZM15.9625 15.8293L6.74384 10.6733L10.4265 8.63601L19.5385 13.8427L15.9625 15.8293V15.8293ZM16.0265 5.53734L25.2545 10.6667L22.2625 12.3293L13.1558 7.12534L16.0265 5.53734V5.53734ZM17.3332 25.7347L17.3358 18.1627L21.3332 15.9253V20L23.9998 18.6667V14.4333L26.6665 12.9413V20.548L17.3332 25.7347Z" fill="black"/>
</svg>
