<svg width="33" height="33" viewBox="0 0 33 33" fill="none" xmlns="http://www.w3.org/2000/svg">
<path d="M9.28125 4.125V7.21875M23.7188 4.125V7.21875M4.125 25.7812V10.3125C4.125 9.49199 4.45095 8.70508 5.03114 8.12489C5.61133 7.5447 6.39824 7.21875 7.21875 7.21875H25.7812C26.6018 7.21875 27.3887 7.5447 27.9689 8.12489C28.5491 8.70508 28.875 9.49199 28.875 10.3125V25.7812M4.125 25.7812C4.125 26.6018 4.45095 27.3887 5.03114 27.9689C5.61133 28.5491 6.39824 28.875 7.21875 28.875H25.7812C26.6018 28.875 27.3887 28.5491 27.9689 27.9689C28.5491 27.3887 28.875 26.6018 28.875 25.7812M4.125 25.7812V15.4688C4.125 14.6482 4.45095 13.8613 5.03114 13.2811C5.61133 12.7009 6.39824 12.375 7.21875 12.375H25.7812C26.6018 12.375 27.3887 12.7009 27.9689 13.2811C28.5491 13.8613 28.875 14.6482 28.875 15.4688V25.7812" stroke="black" stroke-width="2.0625" stroke-linecap="round" stroke-linejoin="round"/>
</svg>
