<svg width="33" height="32" viewBox="0 0 33 32" fill="none" xmlns="http://www.w3.org/2000/svg">
<path d="M20.5 14C20.5 15.0609 20.0786 16.0783 19.3284 16.8284C18.5783 17.5786 17.5609 18 16.5 18C15.4391 18 14.4217 17.5786 13.6716 16.8284C12.9214 16.0783 12.5 15.0609 12.5 14C12.5 12.9391 12.9214 11.9217 13.6716 11.1716C14.4217 10.4214 15.4391 10 16.5 10C17.5609 10 18.5783 10.4214 19.3284 11.1716C20.0786 11.9217 20.5 12.9391 20.5 14V14Z" stroke="black" stroke-width="1.5" stroke-linecap="round" stroke-linejoin="round"/>
<path d="M26.5 14C26.5 23.5227 16.5 29 16.5 29C16.5 29 6.5 23.5227 6.5 14C6.5 11.3478 7.55357 8.8043 9.42893 6.92893C11.3043 5.05357 13.8478 4 16.5 4C19.1522 4 21.6957 5.05357 23.5711 6.92893C25.4464 8.8043 26.5 11.3478 26.5 14V14Z" stroke="black" stroke-width="1.5" stroke-linecap="round" stroke-linejoin="round"/>
</svg>
