<svg width="33" height="33" viewBox="0 0 33 33" fill="none" xmlns="http://www.w3.org/2000/svg">
<path d="M13.1484 3.09375H4.38281C3.67088 3.09375 3.09375 3.67088 3.09375 4.38281V13.1484C3.09375 13.8604 3.67088 14.4375 4.38281 14.4375H13.1484C13.8604 14.4375 14.4375 13.8604 14.4375 13.1484V4.38281C14.4375 3.67088 13.8604 3.09375 13.1484 3.09375Z" stroke="black" stroke-width="2.0625" stroke-linecap="round" stroke-linejoin="round"/>
<path d="M28.6172 3.09375H19.8516C19.1396 3.09375 18.5625 3.67088 18.5625 4.38281V13.1484C18.5625 13.8604 19.1396 14.4375 19.8516 14.4375H28.6172C29.3291 14.4375 29.9062 13.8604 29.9062 13.1484V4.38281C29.9062 3.67088 29.3291 3.09375 28.6172 3.09375Z" stroke="black" stroke-width="2.0625" stroke-linecap="round" stroke-linejoin="round"/>
<path d="M13.1484 18.5625H4.38281C3.67088 18.5625 3.09375 19.1396 3.09375 19.8516V28.6172C3.09375 29.3291 3.67088 29.9062 4.38281 29.9062H13.1484C13.8604 29.9062 14.4375 29.3291 14.4375 28.6172V19.8516C14.4375 19.1396 13.8604 18.5625 13.1484 18.5625Z" stroke="black" stroke-width="2.0625" stroke-linecap="round" stroke-linejoin="round"/>
<path d="M28.6172 18.5625H19.8516C19.1396 18.5625 18.5625 19.1396 18.5625 19.8516V28.6172C18.5625 29.3291 19.1396 29.9062 19.8516 29.9062H28.6172C29.3291 29.9062 29.9062 29.3291 29.9062 28.6172V19.8516C29.9062 19.1396 29.3291 18.5625 28.6172 18.5625Z" stroke="black" stroke-width="2.0625" stroke-linecap="round" stroke-linejoin="round"/>
</svg>
