<svg width="401" height="375" viewBox="0 0 401 375" fill="none" xmlns="http://www.w3.org/2000/svg">
<g clip-path="url(#clip0_111_232)">
<path d="M270.302 265.614H126.453C114.361 265.614 104.524 255.777 104.524 243.685V99.8357C104.524 87.7444 114.361 77.9075 126.453 77.9075H270.302C282.394 77.9075 292.23 87.7444 292.23 99.8357V243.685C292.23 255.777 282.394 265.614 270.302 265.614ZM126.453 81.416C116.28 81.416 108.033 89.6628 108.033 99.8357V243.685C108.033 253.858 116.28 262.105 126.453 262.105H227.216C261.185 262.105 288.722 234.568 288.722 200.599V99.8357C288.722 89.6628 280.475 81.416 270.302 81.416H126.453Z" fill="#F2F2F2"/>
<path d="M141.961 96.3748C135.153 96.3748 129.614 101.913 129.614 108.722V128.047C129.614 134.855 135.153 140.394 141.961 140.394H161.287C168.095 140.394 173.633 134.855 173.633 128.047V108.722C173.633 101.913 168.095 96.3748 161.287 96.3748H141.961Z" fill="#F2F2F2"/>
<path d="M141.961 150.779C135.153 150.779 129.614 156.317 129.614 163.125V182.451C129.614 189.259 135.153 194.798 141.961 194.798H161.287C168.095 194.798 173.633 189.259 173.633 182.451V163.125C173.633 156.317 168.095 150.779 161.287 150.779H141.961Z" fill="#F2F2F2"/>
<path d="M141.961 205.182C135.153 205.182 129.614 210.721 129.614 217.529V236.855C129.614 243.663 135.153 249.202 141.961 249.202H161.287C168.095 249.202 173.633 243.663 173.633 236.855V217.529C173.633 210.721 168.095 205.182 161.287 205.182H141.961Z" fill="#F2F2F2"/>
<path d="M154.776 49.2249C146.198 49.2249 139.219 56.2036 139.219 64.7822V89.1329C139.219 97.7116 146.198 104.69 154.776 104.69H179.127C187.706 104.69 194.685 97.7116 194.685 89.1329V64.7822C194.685 56.2036 187.706 49.2249 179.127 49.2249H154.776Z" fill="#329EF1"/>
<path d="M234.945 117.275C226.366 117.275 219.388 124.254 219.388 132.832V157.183C219.388 165.762 226.366 172.74 234.945 172.74H259.296C267.874 172.74 274.853 165.762 274.853 157.183V132.832C274.853 124.254 267.874 117.275 259.296 117.275H234.945Z" fill="#329EF1"/>
<path d="M200.092 362.375L195.145 362.333L192.955 342.807L200.256 342.869L200.092 362.375Z" fill="#A0616A"/>
<path d="M184.246 370.241C184.236 371.458 185.217 372.461 186.439 372.472L196.275 372.554L197.997 369.064L198.629 372.572L202.34 372.605L201.403 360.094L200.112 360.008L194.845 359.645L193.146 359.531L193.116 363.071L185.215 368.43C184.614 368.838 184.252 369.515 184.246 370.241Z" fill="#2F2E41"/>
<path d="M225.261 362.375L220.314 362.333L218.124 342.807L225.425 342.869L225.261 362.375Z" fill="#A0616A"/>
<path d="M209.415 370.241C209.405 371.458 210.386 372.461 211.608 372.472L221.444 372.554L223.166 369.064L223.798 372.572L227.509 372.605L226.572 360.094L225.281 360.008L220.014 359.645L218.315 359.531L218.286 363.071L210.385 368.43C209.784 368.838 209.421 369.515 209.415 370.241Z" fill="#2F2E41"/>
<path d="M180.68 204.51L200.732 205.143L219.728 209.364C219.728 209.364 217.829 211.686 224.161 218.018C224.161 218.018 232.604 232.794 226.694 247.147L224.161 304.559C224.161 304.559 231.546 345.031 225.904 357.912L218.446 358.378L205.827 305.026L199.676 247.569L196.721 304.137C196.721 304.137 208.026 342.964 200.888 358.378L192.811 357.912L178.991 304.137C178.991 304.137 173.081 242.081 173.925 230.261C174.77 218.44 180.68 204.51 180.68 204.51Z" fill="#2F2E41"/>
<path d="M248.019 113.789C245.278 114.499 243.631 117.296 244.341 120.037C244.666 121.294 245.433 122.315 246.428 122.99V122.997L246.039 132.416L253.247 135.752L253.822 121.258L253.772 121.259C254.397 120.146 254.613 118.801 254.268 117.467C253.558 114.726 250.76 113.079 248.019 113.789Z" fill="#A0616A"/>
<path d="M207.734 147.405C206.22 145.904 205.342 143.869 205.309 141.656C205.265 138.688 206.752 135.994 209.288 134.449C212.208 132.671 215.86 132.851 218.591 134.907L241.225 151.949L245.258 127.399L253.917 130.186L251.851 162.154C251.706 164.39 250.442 166.36 248.47 167.423C246.498 168.487 244.158 168.46 242.21 167.352L209.5 148.742C208.843 148.368 208.251 147.918 207.734 147.405Z" fill="#3F3D56"/>
<path d="M173.221 100.057C174.668 102.491 173.868 105.637 171.434 107.084C170.319 107.747 169.055 107.933 167.873 107.711L167.868 107.717L161.513 114.679L154.046 111.973L163.842 101.275L163.876 101.312C164.216 100.081 165.01 98.9735 166.194 98.2695C168.628 96.8226 171.774 97.6228 173.221 100.057Z" fill="#A0616A"/>
<path d="M175.966 151.998L139.635 142.185C137.472 141.6 135.792 139.971 135.14 137.828C134.488 135.684 134.977 133.395 136.449 131.705L157.489 107.549L165.6 111.666L151.179 131.939L179.251 135.773C182.639 136.236 185.359 138.679 186.18 141.998C186.894 144.88 186.053 147.84 183.932 149.917C182.351 151.465 180.294 152.292 178.162 152.292C177.434 152.292 176.696 152.195 175.966 151.998Z" fill="#3F3D56"/>
<path d="M227.763 212.956L176.958 215.286C175.563 213.167 175.941 209.981 177.895 205.991C185.273 190.927 179.669 162.429 175.9 147.589C174.842 143.426 177.682 139.287 181.956 138.859L186.746 138.38L191.174 124.864H206.682L213.116 132.214L224.034 138.846C222.047 159.317 213.579 188.224 225.642 202.72C228.281 205.891 229.029 209.319 227.763 212.956Z" fill="#3F3D56"/>
<path d="M196.955 125.176C205.298 125.176 212.061 118.413 212.061 110.071C212.061 101.728 205.298 94.9656 196.955 94.9656C188.613 94.9656 181.85 101.728 181.85 110.071C181.85 118.413 188.613 125.176 196.955 125.176Z" fill="#A0616A"/>
<path d="M214.048 100.402C216.15 92.7397 193.245 86.1693 188.794 92.3396C188.175 91.4624 185.887 90.9295 184.838 91.1986C183.788 91.4677 182.906 92.1405 182.044 92.7917C180.86 93.7013 179.633 94.6431 178.907 95.9509C178.175 97.2534 178.062 99.0294 179.047 100.16C179.827 101.058 181.198 105.835 182.372 106.071C183.19 106.238 183.879 106.373 184.471 106.47C184.998 105.7 186.343 104.733 186.246 103.802C187.043 104.33 186.752 105.258 186.591 106.206C186.056 109.364 174.008 133.811 180.909 126.607C181.592 127.01 182.437 127.387 183.412 127.732C185.064 125.24 186.42 122.301 187.313 119.228L187.32 119.285C187.627 121.955 189.579 124.147 192.161 124.895C202.519 127.896 210.898 123.492 213.78 115.552C212.725 113.41 212.265 113.643 212.36 113.579C213.677 112.691 215.487 113.272 216.053 114.756C216.22 115.193 216.372 115.567 216.503 115.848C218.005 110.477 219.791 111.252 214.048 100.402Z" fill="#2F2E41"/>
<path d="M206.902 94.8427L205.844 89.4336C205.755 88.9789 205.671 88.4855 205.876 88.07C206.14 87.5362 206.817 87.3149 207.406 87.4C207.995 87.4851 208.436 88.0233 209.022 88.1269C211.06 88.4873 213.754 86.4741 214.484 91.567C214.789 93.6904 218.177 93.9147 219.309 95.7371C220.44 97.5595 220.579 100.19 219.035 101.679C217.802 102.868 215.821 103.005 214.219 102.398C212.617 101.79 211.331 100.563 210.208 99.2696C209.085 97.9758 208.068 96.5757 206.773 95.4545" fill="#2F2E41"/>
<path d="M214.855 103.07C210.722 102.493 207.904 100.989 206.481 98.6025C204.619 95.478 205.866 92.0376 205.92 91.8926L206.794 92.2173C206.782 92.249 205.651 95.3983 207.287 98.1332C208.56 100.261 211.15 101.611 214.984 102.147L214.855 103.07Z" fill="#6C63FF"/>
<path d="M234.251 44.6231C222.1 44.6231 212.213 34.7362 212.213 22.5851C212.213 10.4341 222.1 0.547119 234.251 0.547119C246.402 0.547119 256.289 10.4341 256.289 22.5851C256.289 34.7362 246.402 44.6231 234.251 44.6231ZM234.251 9.36233C226.96 9.36233 221.028 15.2937 221.028 22.5851C221.028 29.8766 226.96 35.8079 234.251 35.8079C241.543 35.8079 247.474 29.8766 247.474 22.5851C247.474 15.2937 241.543 9.36233 234.251 9.36233Z" fill="#329EF1"/>
<path d="M268.158 59.5999C267.078 59.5999 265.995 59.206 265.145 58.4076L244.461 39.0232C242.683 37.3596 242.593 34.5704 244.259 32.7949C245.92 31.0129 248.709 30.9246 250.487 32.5926L271.171 51.977C272.949 53.6406 273.039 56.4298 271.374 58.2053C270.506 59.1329 269.333 59.5999 268.158 59.5999Z" fill="#329EF1"/>
<path d="M361.642 361.88C363.14 361.974 363.968 360.112 362.835 359.026L362.722 358.578C362.737 358.542 362.752 358.506 362.767 358.47C364.282 354.857 369.418 354.882 370.921 358.501C372.255 361.713 373.953 364.93 374.371 368.327C374.558 369.826 374.474 371.353 374.141 372.824C377.266 365.998 378.911 358.544 378.911 351.048C378.911 349.164 378.808 347.281 378.597 345.402C378.423 343.866 378.184 342.338 377.875 340.825C376.203 332.645 372.581 324.853 367.357 318.345C364.846 316.973 362.752 314.827 361.487 312.255C361.032 311.327 360.676 310.329 360.507 309.312C360.793 309.35 361.585 304.997 361.369 304.73C361.768 304.126 362.48 303.826 362.915 303.236C365.079 300.303 368.059 300.815 369.615 304.801C372.939 306.478 372.971 309.26 370.932 311.936C369.634 313.638 369.456 315.942 368.317 317.764C368.435 317.914 368.556 318.06 368.674 318.21C370.821 320.965 372.679 323.926 374.245 327.036C373.803 323.579 374.456 319.414 375.57 316.729C376.838 313.67 379.215 311.093 381.308 308.449C383.822 305.272 388.978 306.659 389.421 310.685C389.425 310.724 389.429 310.763 389.433 310.802C389.123 310.978 388.818 311.164 388.521 311.361C386.823 312.483 387.41 315.114 389.421 315.424L389.466 315.431C389.354 316.551 389.162 317.661 388.881 318.753C391.566 329.137 385.769 332.92 377.491 333.09C377.308 333.183 377.13 333.277 376.948 333.366C377.786 335.727 378.456 338.15 378.953 340.605C379.398 342.774 379.707 344.966 379.88 347.169C380.096 349.947 380.077 352.739 379.843 355.513L379.857 355.414C380.452 352.36 382.111 349.506 384.519 347.529C388.106 344.582 393.175 343.497 397.045 341.128C398.908 339.988 401.295 341.462 400.97 343.622L400.954 343.725C400.378 343.959 399.816 344.231 399.272 344.535C398.961 344.711 398.657 344.897 398.359 345.094C396.662 346.216 397.249 348.847 399.26 349.157L399.305 349.164C399.338 349.169 399.366 349.174 399.399 349.178C398.41 351.526 397.033 353.704 395.309 355.583C393.63 364.648 386.418 365.508 378.704 362.868H378.7C377.856 366.542 376.624 370.131 375.041 373.551H361.969C361.922 373.405 361.88 373.255 361.838 373.11C363.047 373.185 364.265 373.115 365.455 372.895C364.485 371.705 363.515 370.505 362.545 369.315C362.522 369.292 362.503 369.268 362.484 369.245C361.993 368.636 361.496 368.032 361.004 367.422C360.973 365.552 361.197 363.688 361.641 361.88H361.642Z" fill="#F2F2F2"/>
<path d="M0 373.59C0 374.068 0.384476 374.453 0.863251 374.453H400.035C400.514 374.453 400.898 374.068 400.898 373.59C400.898 373.111 400.514 372.726 400.035 372.726H0.863251C0.384476 372.726 0 373.111 0 373.59Z" fill="#CCCCCC"/>
</g>
<defs>
<clipPath id="clip0_111_232">
<rect width="401" height="375" fill="white"/>
</clipPath>
</defs>
</svg>
