<svg width="863" height="645" viewBox="0 0 863 645" fill="none" xmlns="http://www.w3.org/2000/svg">
<g clip-path="url(#clip0_112_1022)">
<path d="M629.943 612.644H612.777L604.608 546.435H629.943V612.644Z" fill="#9E616A"/>
<path d="M639.002 642.385H626.692L624.495 630.763L618.867 642.385H586.219C584.654 642.385 583.129 641.885 581.869 640.958C580.608 640.03 579.677 638.724 579.211 637.23C578.746 635.736 578.77 634.132 579.28 632.653C579.79 631.173 580.76 629.896 582.048 629.006L608.121 611V599.25L635.544 600.887L639.002 642.385Z" fill="#2F2E41"/>
<path d="M731.923 590.981L718.148 601.224L672.085 552.969L692.415 537.851L731.923 590.981Z" fill="#9E616A"/>
<path d="M756.94 609.441L747.061 616.786L738.363 608.771L740.782 621.456L714.583 640.938C713.327 641.872 711.806 642.38 710.241 642.388C708.676 642.396 707.15 641.903 705.884 640.982C704.619 640.061 703.681 638.76 703.208 637.268C702.735 635.776 702.751 634.172 703.253 632.69L713.431 602.683L706.419 593.255L729.402 578.204L756.94 609.441Z" fill="#2F2E41"/>
<path d="M649.927 271.04C649.927 271.04 682.496 299.178 667.469 379.392L649.124 457.989L708.953 557.245L689.877 580.452L612.097 473.019L583.912 406.905L576.003 289.236L649.927 271.04Z" fill="#2F2E41"/>
<path d="M599.447 425.746L597.488 456.084L603.483 585.365L631.692 580.452L637.083 488.406L599.447 425.746Z" fill="#2F2E41"/>
<path d="M237.445 628.211L252.796 628.21L260.098 569.001L237.443 569.002L237.445 628.211Z" fill="#FFB6B6"/>
<path d="M233.529 623.199L237.85 623.199L254.719 616.339L263.76 623.198H263.761C268.871 623.198 273.771 625.228 277.384 628.841C280.997 632.454 283.026 637.354 283.027 642.463V643.089L233.53 643.091L233.529 623.199Z" fill="#2F2E41"/>
<path d="M296.932 618.538L311.905 621.918L332.071 565.772L309.972 560.782L296.932 618.538Z" fill="#FFB6B6"/>
<path d="M294.216 612.786L298.43 613.738L316.396 610.762L323.704 619.444L323.706 619.445C328.689 620.57 333.022 623.63 335.75 627.95C338.479 632.269 339.379 637.496 338.254 642.48L338.116 643.091L289.835 632.19L294.216 612.786Z" fill="#2F2E41"/>
<path d="M218.003 266.236C210.806 287.942 211.567 311.504 219.733 336.792L223.224 479.17C223.224 479.17 218.023 572.539 234.806 605.395H259.146L271.197 470.643L272.711 380.198L324.893 456.503L291.656 603.192L321.613 605.87L375.547 446.679L309.003 292.236L218.003 266.236Z" fill="#2F2E41"/>
<path d="M498.697 204.408C517.315 187.631 545.006 179.196 568.235 188.603C544.407 201.832 526.027 223.062 516.347 248.538C512.649 258.376 509.56 269.704 500.465 274.971C494.805 278.249 487.764 278.409 481.419 276.827C475.073 275.244 469.257 272.073 463.52 268.933L461.888 268.896C469.215 244.93 480.08 221.184 498.697 204.408Z" fill="#E6E6E6"/>
<path d="M568.104 189.112C547.532 191.771 528.32 200.844 513.198 215.043C509.888 218.042 507.072 221.544 504.853 225.42C502.813 229.265 501.84 233.587 502.035 237.935C502.136 241.994 502.709 246.133 501.821 250.145C501.336 252.192 500.424 254.114 499.144 255.783C497.865 257.453 496.247 258.833 494.396 259.834C489.851 262.447 484.637 263.271 479.51 263.899C473.818 264.597 467.895 265.231 462.968 268.424C462.371 268.811 461.806 267.862 462.402 267.475C470.974 261.921 481.822 263.942 491.039 260.235C495.34 258.505 499.146 255.469 500.493 250.878C501.671 246.863 501.084 242.594 500.947 238.486C500.694 234.246 501.483 230.009 503.246 226.145C505.26 222.169 507.937 218.564 511.161 215.486C518.309 208.44 526.521 202.562 535.495 198.066C545.708 192.879 556.734 189.477 568.094 188.008C568.797 187.917 568.803 189.022 568.104 189.112H568.104Z" fill="white"/>
<path d="M517.799 210.184C515.761 207.324 514.807 203.832 515.106 200.332C515.405 196.833 516.938 193.554 519.431 191.08C519.938 190.582 520.736 191.345 520.23 191.844C517.903 194.143 516.475 197.198 516.204 200.457C515.932 203.717 516.834 206.966 518.747 209.618C519.163 210.195 518.212 210.758 517.799 210.184V210.184Z" fill="white"/>
<path d="M501.714 235.884C508.783 237.137 516.065 235.679 522.108 231.801C522.706 231.416 523.271 232.365 522.674 232.749C516.379 236.773 508.798 238.275 501.444 236.955C500.743 236.829 501.017 235.759 501.714 235.884V235.884Z" fill="white"/>
<path d="M545.798 194.341C546.356 195.612 547.221 196.725 548.315 197.579C549.409 198.433 550.698 199.002 552.067 199.235C552.769 199.352 552.494 200.423 551.797 200.306C550.286 200.042 548.863 199.411 547.652 198.47C546.441 197.529 545.479 196.306 544.85 194.907C544.78 194.78 544.76 194.631 544.796 194.491C544.831 194.35 544.919 194.228 545.041 194.15C545.167 194.075 545.317 194.054 545.459 194.089C545.601 194.125 545.723 194.216 545.798 194.341V194.341Z" fill="white"/>
<path d="M593.813 269.508C593.372 269.447 592.932 269.386 592.485 269.332C586.559 268.545 580.578 268.242 574.603 268.424C574.141 268.43 573.672 268.444 573.211 268.464C558.82 269.056 544.663 272.314 531.461 278.074C526.21 280.371 521.141 283.064 516.298 286.13C509.611 290.364 502.696 295.487 495.22 297.214C494.442 297.403 493.653 297.544 492.858 297.635L461.969 270.89C461.93 270.794 461.884 270.704 461.844 270.608L460.562 269.597C460.8 269.421 461.052 269.244 461.29 269.068C461.428 268.966 461.573 268.87 461.711 268.767C461.806 268.701 461.9 268.635 461.981 268.569C462.013 268.547 462.044 268.525 462.069 268.51C462.151 268.445 462.233 268.393 462.308 268.334C463.71 267.341 465.122 266.357 466.543 265.38C466.549 265.373 466.549 265.373 466.562 265.372C477.32 257.826 488.935 251.582 501.163 246.772C501.53 246.634 501.903 246.488 502.284 246.361C507.791 244.314 513.456 242.72 519.223 241.595C522.383 240.989 525.571 240.544 528.776 240.261C537.058 239.545 545.401 240.136 553.499 242.012C569.642 245.755 584.409 254.62 593.155 268.445C593.379 268.799 593.596 269.147 593.813 269.508Z" fill="#E6E6E6"/>
<path d="M593.404 269.839C575.378 259.576 554.575 255.254 533.953 257.486C529.504 257.888 525.147 258.988 521.042 260.747C517.098 262.589 513.719 265.454 511.257 269.044C508.894 272.344 506.859 275.995 503.734 278.664C502.115 280.006 500.23 280.991 498.203 281.554C496.176 282.117 494.053 282.245 491.973 281.929C486.77 281.279 482.111 278.797 477.64 276.213C472.675 273.343 467.564 270.283 461.708 269.866C460.998 269.815 461.118 268.717 461.826 268.768C472.015 269.494 479.459 277.638 489.051 280.228C493.527 281.436 498.394 281.303 502.233 278.449C505.591 275.953 507.692 272.19 510.056 268.827C512.407 265.29 515.588 262.383 519.322 260.359C523.324 258.397 527.632 257.13 532.059 256.614C542.009 255.291 552.104 255.541 561.976 257.355C573.254 259.363 584.105 263.285 594.061 268.951C594.677 269.302 594.016 270.188 593.404 269.839L593.404 269.839Z" fill="white"/>
<path d="M540.551 256.376C540.646 252.866 541.986 249.503 544.332 246.889C546.678 244.275 549.876 242.579 553.356 242.106C554.061 242.012 554.239 243.103 553.534 243.196C550.292 243.631 547.313 245.211 545.133 247.649C542.954 250.088 541.718 253.225 541.649 256.495C541.633 257.206 540.535 257.083 540.551 256.376Z" fill="white"/>
<path d="M512.234 267.212C517.125 272.469 523.817 275.689 530.976 276.23C531.686 276.283 531.566 277.381 530.857 277.328C523.408 276.751 516.451 273.386 511.374 267.905C510.89 267.382 511.754 266.692 512.234 267.212Z" fill="white"/>
<path d="M572.446 260.584C572.126 261.935 572.147 263.344 572.506 264.684C572.865 266.025 573.552 267.256 574.504 268.266C574.994 268.782 574.13 269.471 573.644 268.958C572.597 267.838 571.84 266.478 571.44 264.997C571.039 263.516 571.008 261.96 571.348 260.465C571.368 260.321 571.442 260.191 571.555 260.1C571.668 260.009 571.812 259.964 571.956 259.975C572.102 259.992 572.234 260.065 572.326 260.179C572.418 260.293 572.461 260.438 572.446 260.584V260.584Z" fill="white"/>
<path d="M51.2732 627.136C49.8232 632.576 46.0132 637.106 41.4132 640.406C40.6632 640.946 39.8932 641.446 39.1132 641.916C38.8732 642.056 38.6332 642.206 38.3832 642.336C38.1132 642.496 37.8432 642.646 37.5732 642.786H15.9432C15.5532 641.996 15.1732 641.196 14.7932 640.406C5.52321 620.926 -0.986784 599.906 0.123216 578.496C0.563593 570.191 2.30827 562.008 5.29321 554.246C11.2332 538.776 22.0732 525.386 36.9832 518.646C37.3532 518.476 37.7432 518.306 38.1232 518.146C38.0032 518.576 37.8832 518.996 37.7632 519.426C36.1636 525.188 35.0333 531.071 34.3832 537.016C34.3232 537.476 34.2732 537.936 34.2332 538.406C32.8126 552.743 34.0741 567.22 37.9532 581.096C37.9632 581.126 37.9732 581.166 37.9832 581.196C38.8333 584.266 39.8199 587.289 40.9432 590.266C41.8232 592.616 42.7732 594.936 43.8132 597.216C48.1532 606.786 53.9732 616.986 51.2732 627.136Z" fill="#E6E6E6"/>
<path d="M38.3933 518.596C38.1833 518.876 37.9732 519.146 37.7633 519.426C33.3711 525.247 29.6414 531.539 26.6433 538.186C26.4833 538.516 26.3333 538.846 26.2033 539.186C22.0953 548.468 19.457 558.333 18.3833 568.426C18.3717 568.495 18.365 568.566 18.3633 568.636C18.1133 570.996 17.9633 573.376 17.9033 575.756C17.6809 580.217 18.1635 584.685 19.3333 588.996C20.3999 592.516 22.2689 595.741 24.7933 598.416C25.0433 598.686 25.2933 598.956 25.5633 599.216C25.7633 599.426 25.9833 599.636 26.1933 599.836C28.2133 601.766 30.4233 603.556 32.3233 605.626C33.1941 606.554 33.9806 607.558 34.6733 608.626C35.7788 610.416 36.4929 612.419 36.7687 614.505C37.0445 616.59 36.8756 618.71 36.2733 620.726C34.9133 625.786 31.8033 630.056 28.6233 634.126C27.0333 636.166 25.3933 638.226 23.9733 640.406C23.4533 641.186 22.9733 641.976 22.5333 642.786H21.2733C21.6933 641.976 22.1533 641.186 22.6533 640.406C26.3033 634.656 31.4933 629.716 34.1833 623.386C36.0033 619.116 36.5533 614.276 34.2533 610.086C33.5793 608.868 32.7636 607.733 31.8233 606.706C29.9933 604.636 27.8033 602.866 25.8133 600.996C25.3133 600.526 24.8233 600.046 24.3533 599.546C21.8615 597.014 19.9387 593.98 18.7133 590.646C17.3256 586.411 16.6696 581.971 16.7733 577.516C16.7733 574.676 16.9233 571.816 17.2033 568.976C17.2333 568.616 17.2733 568.246 17.3133 567.876C19.3584 550.004 26.1501 533.006 36.9833 518.646C37.1833 518.366 37.3933 518.096 37.6033 517.826C38.0333 517.266 38.8233 518.046 38.3933 518.596Z" fill="white"/>
<path d="M17.7171 569.071C14.2534 568.489 11.1093 566.695 8.84625 564.009C6.58321 561.323 5.34861 557.92 5.36292 554.408C5.36483 554.265 5.42226 554.128 5.5231 554.026C5.62395 553.924 5.76034 553.866 5.90353 553.863C6.04673 553.859 6.18555 553.912 6.29074 554.009C6.39594 554.106 6.4593 554.241 6.46747 554.384C6.44811 557.654 7.59845 560.824 9.71091 563.321C11.8234 565.818 14.7588 567.477 17.9873 568C18.6888 568.114 18.4146 569.184 17.7171 569.071V569.071Z" fill="white"/>
<path d="M24.5152 598.617C30.3999 594.504 34.518 588.324 36.0484 581.309C36.1994 580.614 37.2702 580.885 37.1194 581.579C35.5132 588.876 31.2146 595.299 25.0815 599.565C24.4966 599.972 23.9336 599.021 24.5153 598.617L24.5152 598.617Z" fill="white"/>
<path d="M26.3127 538.069C27.606 538.573 29.0042 538.749 30.382 538.579C31.7597 538.409 33.0738 537.9 34.2061 537.097C34.7855 536.684 35.348 537.635 34.7723 538.046C33.5172 538.927 32.0652 539.487 30.5435 539.678C29.0217 539.869 27.4763 539.684 26.0425 539.14C25.903 539.1 25.784 539.008 25.7096 538.884C25.6352 538.759 25.6111 538.611 25.6421 538.469C25.6786 538.328 25.7695 538.206 25.895 538.131C26.0206 538.056 26.1707 538.034 26.3127 538.069V538.069Z" fill="white"/>
<path d="M113.413 557.266C113.063 557.536 112.703 557.806 112.353 558.086C107.606 561.719 103.161 565.733 99.0635 570.086C98.7435 570.416 98.4235 570.756 98.1135 571.096L98.1035 571.106C88.3875 581.653 80.7051 593.906 75.4435 607.246L75.4135 607.336C75.4035 607.366 75.3935 607.386 75.3835 607.416C73.2979 612.756 71.6165 618.244 70.3535 623.836C69.1335 629.296 68.1335 635.146 66.2235 640.406C65.9335 641.216 65.6135 642.016 65.2735 642.786H20.8135C20.9635 641.996 21.1235 641.196 21.2835 640.406C23.5451 628.819 27.0799 617.517 31.8235 606.706C31.9835 606.346 32.1435 605.986 32.3235 605.626C34.7723 600.284 37.6518 595.151 40.9335 590.276C40.9334 590.275 40.9337 590.273 40.9342 590.272C40.9347 590.271 40.9354 590.27 40.9363 590.269C40.9373 590.268 40.9384 590.267 40.9396 590.267C40.9408 590.266 40.9422 590.266 40.9435 590.266C42.7455 587.606 44.6813 585.039 46.7435 582.576C52.0917 576.213 58.4091 570.732 65.4635 566.336C65.5035 566.306 65.5535 566.286 65.5935 566.256C79.6335 557.546 96.2735 553.396 112.183 556.986H112.193C112.603 557.076 113.004 557.166 113.413 557.266Z" fill="#E6E6E6"/>
<path d="M113.363 557.796C113.023 557.886 112.683 557.986 112.353 558.086C105.344 560.089 98.5797 562.862 92.1828 566.356C91.8628 566.526 91.5427 566.706 91.2227 566.886C82.3823 571.82 74.3576 578.091 67.4327 585.476C67.4273 585.481 67.4238 585.488 67.4227 585.496C67.3427 585.576 67.2527 585.666 67.1827 585.746C65.5827 587.466 64.0427 589.256 62.5827 591.096C59.7268 594.527 57.4257 598.383 55.7627 602.526C54.492 605.979 54.0435 609.68 54.4527 613.336C54.4827 613.706 54.5327 614.066 54.5827 614.436C54.6227 614.726 54.6627 615.016 54.7127 615.316C55.3727 619.326 56.5127 623.346 56.1927 627.436C55.998 629.532 55.3618 631.562 54.326 633.394C53.2901 635.227 51.8781 636.819 50.1827 638.066C49.0303 638.957 47.7985 639.74 46.5027 640.406C44.6502 641.361 42.7199 642.157 40.7327 642.786H36.8027C37.3327 642.636 37.8527 642.486 38.3827 642.336C40.2635 641.805 42.1102 641.161 43.9127 640.406C44.9425 639.975 45.9444 639.481 46.9127 638.926C50.9327 636.616 54.2828 633.076 54.9827 628.346C55.5927 624.206 54.4127 620.066 53.7127 616.016C53.5927 615.316 53.4827 614.626 53.4227 613.936C52.9453 610.429 53.2353 606.86 54.2727 603.476C55.7116 599.255 57.8627 595.311 60.6327 591.816C62.3463 589.54 64.1754 587.354 66.1127 585.266C66.3527 584.996 66.6027 584.726 66.8627 584.456C73.9333 577.018 82.0972 570.702 91.0727 565.726H91.0827C97.7565 562.011 104.837 559.078 112.183 556.986H112.193C112.523 556.886 112.863 556.786 113.193 556.696C113.883 556.516 114.043 557.606 113.363 557.796Z" fill="white"/>
<path d="M66.4672 585.645C64.0519 583.095 62.6216 579.77 62.4318 576.263C62.242 572.756 63.305 569.296 65.431 566.5C65.8631 565.936 66.7602 566.581 66.3275 567.146C64.343 569.745 63.3531 572.969 63.5365 576.234C63.7199 579.5 65.0645 582.592 67.3277 584.953C67.8189 585.467 66.9555 586.156 66.4671 585.645H66.4672Z" fill="white"/>
<path d="M54.1072 613.33C61.2823 613.589 68.2912 611.133 73.7365 606.454C74.2756 605.99 74.9673 606.851 74.4289 607.315C68.7533 612.174 61.4542 614.714 53.9884 614.428C53.2768 614.4 53.3995 613.302 54.1072 613.33V613.33Z" fill="white"/>
<path d="M91.9959 566.067C92.7249 567.249 93.7358 568.231 94.938 568.925C96.1402 569.619 97.4959 570.003 98.8834 570.044C99.595 570.063 99.4715 571.161 98.7645 571.142C97.2317 571.09 95.735 570.663 94.4051 569.9C93.0752 569.136 91.9526 568.058 91.1354 566.76C91.0481 566.644 91.0082 566.499 91.0238 566.355C91.0394 566.211 91.1094 566.078 91.2194 565.983C91.3338 565.892 91.4796 565.85 91.625 565.866C91.7704 565.881 91.9037 565.954 91.9959 566.067V566.067Z" fill="white"/>
<path d="M456.383 173.13C455.356 174.48 454.046 175.588 452.545 176.377C451.044 177.166 449.389 177.616 447.695 177.696C446.001 177.776 444.31 177.484 442.741 176.839C441.173 176.195 439.765 175.215 438.616 173.967L400.815 190.407L404.497 169.306L439.829 156.929C442.052 155.138 444.856 154.225 447.707 154.363C450.559 154.501 453.261 155.68 455.302 157.677C457.342 159.674 458.579 162.35 458.778 165.198C458.978 168.046 458.125 170.868 456.383 173.13V173.13Z" fill="#FFB8B8"/>
<path d="M431.158 179.718L343.36 218.826L343.172 218.759L243.105 183.1C235.651 179.205 229.968 172.607 227.22 164.659C224.472 156.71 224.867 148.012 228.323 140.344V140.344C230.239 136.108 233.03 132.326 236.513 129.246C239.996 126.166 244.091 123.859 248.53 122.477C252.969 121.094 257.651 120.667 262.266 121.224C266.882 121.781 271.327 123.309 275.31 125.708L349.779 170.567L421.99 161.208L431.158 179.718Z" fill="#E6E6E6"/>
<path d="M862.703 643.596C862.704 643.752 862.673 643.907 862.614 644.052C862.554 644.196 862.466 644.328 862.356 644.438C862.245 644.549 862.114 644.637 861.969 644.696C861.825 644.756 861.67 644.786 861.513 644.786H1.22319C0.907583 644.786 0.604913 644.661 0.381744 644.437C0.158576 644.214 0.0332031 643.912 0.0332031 643.596C0.0332031 643.28 0.158576 642.978 0.381744 642.755C0.604913 642.531 0.907583 642.406 1.22319 642.406H861.513C861.67 642.405 861.825 642.436 861.969 642.496C862.114 642.555 862.245 642.643 862.356 642.753C862.466 642.864 862.554 642.995 862.614 643.14C862.673 643.285 862.704 643.44 862.703 643.596Z" fill="#CCCCCC"/>
<path d="M313.344 296.796L224.838 282.64C222.517 281.896 220.384 280.659 218.586 279.014C216.788 277.368 215.367 275.353 214.421 273.107C213.476 270.86 213.027 268.436 213.107 266C213.186 263.564 213.792 261.174 214.883 258.994L218.896 250.965L217.337 166.619C217.149 155.647 219.854 144.82 225.179 135.226C230.505 125.631 238.263 117.609 247.674 111.965L256.304 106.804L260.666 95.7277L300.886 96.7087L301.004 111.236L315.407 134.204L315.407 134.299L314.503 259.313L310.533 272.215L316.536 287.22L313.344 296.796Z" fill="#E6E6E6"/>
<path d="M284.459 81.9541C304.642 81.9541 321.003 65.5927 321.003 45.41C321.003 25.2272 304.642 8.86584 284.459 8.86584C264.276 8.86584 247.915 25.2272 247.915 45.41C247.915 65.5927 264.276 81.9541 284.459 81.9541Z" fill="#FFB8B8"/>
<path d="M246.406 53.3765C245.316 48.7846 245.816 42.323 246.432 37.6995C248.047 25.5782 254.779 14.0547 265.006 7.229C266.945 5.75617 269.249 4.84045 271.67 4.58054C274.089 4.47954 276.712 5.77472 277.455 8.07954C278.064 6.55834 278.979 5.17821 280.143 4.02431C281.306 2.87042 282.694 1.96724 284.22 1.37054C287.286 0.195892 290.584 -0.24833 293.851 0.0730814C300.184 0.595121 306.258 2.82204 311.428 6.51751C316.598 10.213 320.67 15.2391 323.214 21.0626C324.19 23.3814 326.917 14.8163 328.153 17.0073C329.29 19.2846 331.272 21.0267 333.677 21.8607C336.1 22.5369 337.085 32.521 338.038 30.1929C338.778 31.9135 339.071 33.7933 338.889 35.6573C338.706 37.5213 338.055 39.3089 336.996 40.8536C335.937 42.3982 334.504 43.6498 332.831 44.4916C331.158 45.3334 329.299 45.7382 327.428 45.6682C324.961 45.5759 322.603 44.6687 320.166 44.2782C311.451 42.8817 302.206 49.2013 300.343 57.8287C299.676 55.3338 298.61 52.9629 297.187 50.8077C296.465 49.7358 295.497 48.8519 294.364 48.2294C293.231 47.607 291.966 47.264 290.674 47.2291C288.194 47.3219 286.015 48.943 284.406 50.832C282.797 52.7211 281.589 54.925 279.968 56.8039C275.213 62.3169 268.781 75.1736 262.004 74.2359C256.655 73.496 247.894 59.646 246.406 53.3765Z" fill="#2F2E41"/>
<path d="M505.364 214.54C505.619 212.874 505.277 211.172 504.397 209.734C503.517 208.296 502.157 207.217 500.557 206.687L402.143 173.91C401.2 173.594 400.201 173.479 399.21 173.573L374.543 175.906L360.39 177.248L334.271 179.717C332.694 179.867 331.212 180.537 330.056 181.621C328.901 182.705 328.138 184.142 327.887 185.706L314.626 268.544C314.375 270.16 314.683 271.813 315.498 273.23C316.313 274.647 317.588 275.744 319.111 276.34L418.551 314.724C419.018 314.905 419.503 315.036 419.997 315.113C420.717 315.229 421.451 315.235 422.173 315.129L486.428 305.606C487.944 305.386 489.348 304.684 490.433 303.603C491.518 302.523 492.226 301.121 492.451 299.606L505.364 214.54Z" fill="white"/>
<path d="M321.365 270.503L420.805 308.886C420.95 308.943 421.107 308.961 421.262 308.939L485.509 299.417C485.699 299.391 485.876 299.303 486.012 299.168C486.149 299.032 486.237 298.856 486.264 298.665L499.184 213.599C499.213 213.391 499.169 213.179 499.06 213C498.951 212.821 498.782 212.686 498.584 212.617L497.923 212.393L400.165 179.847C400.12 179.831 400.074 179.82 400.027 179.814C399.952 179.8 399.874 179.796 399.797 179.802L339.633 185.495L334.859 185.943C334.663 185.964 334.479 186.049 334.336 186.184C334.192 186.319 334.097 186.497 334.064 186.691L320.805 269.525C320.773 269.728 320.811 269.935 320.912 270.113C321.014 270.291 321.174 270.429 321.365 270.503V270.503Z" fill="#329EF1"/>
<path d="M339.634 185.495L399.798 179.802C399.875 179.796 399.952 179.8 400.028 179.814C400.075 179.82 400.121 179.831 400.165 179.847L497.923 212.393L472.137 215.123L462.486 216.139L435.026 219.041C434.945 219.045 434.865 219.044 434.785 219.038C434.736 219.023 434.687 219.008 434.628 218.993L339.634 185.495Z" fill="#2F2E41"/>
<path d="M319.109 276.345L418.549 314.727C419.017 314.908 419.504 315.035 420 315.107C420.72 315.226 421.454 315.235 422.177 315.134L486.424 305.612C487.94 305.391 489.345 304.688 490.431 303.607C491.517 302.526 492.226 301.124 492.453 299.608L505.362 214.54C505.553 213.286 505.409 212.004 504.944 210.824C504.879 210.667 504.813 210.51 504.737 210.362C504.225 209.284 503.446 208.356 502.473 207.664C501.888 207.244 501.242 206.915 500.558 206.688L500.441 206.646L402.149 173.909C401.748 173.781 401.338 173.681 400.922 173.611C400.354 173.53 399.778 173.519 399.207 173.578L374.544 175.902L360.392 177.252L334.269 179.719C333.2 179.819 332.168 180.16 331.25 180.716C331.179 180.751 331.112 180.791 331.048 180.837C331.002 180.867 330.959 180.9 330.918 180.936C330.116 181.483 329.435 182.187 328.914 183.006C328.394 183.825 328.046 184.741 327.891 185.699L314.621 268.543C314.37 270.16 314.678 271.814 315.494 273.233C316.31 274.651 317.585 275.749 319.109 276.345V276.345ZM329.652 185.988C329.813 184.995 330.253 184.069 330.921 183.317C331.124 183.075 331.35 182.854 331.597 182.658C332.272 182.113 333.069 181.74 333.921 181.574C334.089 181.539 334.259 181.515 334.43 181.502L378.415 177.347L399.379 175.352C399.522 175.335 399.652 175.338 399.783 175.33C400.101 175.324 400.418 175.347 400.731 175.401C401.019 175.438 401.302 175.506 401.576 175.602L499.984 208.381C500.062 208.408 500.129 208.435 500.207 208.462C501.102 208.795 501.888 209.367 502.48 210.116C502.948 210.689 503.29 211.355 503.483 212.069C503.676 212.784 503.716 213.531 503.601 214.262L490.68 299.338C490.511 300.473 489.981 301.523 489.169 302.334C488.357 303.144 487.307 303.672 486.172 303.84L421.915 313.361C420.995 313.493 420.058 313.386 419.192 313.051L319.751 274.678C318.611 274.229 317.658 273.406 317.047 272.344C316.437 271.282 316.206 270.043 316.392 268.832L329.652 185.988Z" fill="#3F3D56"/>
<path d="M330.704 181.387C330.757 181.237 330.849 181.103 330.972 181.001C331.013 180.969 331.056 180.939 331.101 180.913C331.143 180.897 331.186 180.871 331.227 180.855C331.427 180.774 331.649 180.771 331.851 180.844L333.921 181.574L435.037 217.244L458.702 214.743L471.945 213.346L499.974 210.379L502.481 210.116L502.968 210.062C503.178 210.043 503.388 210.098 503.562 210.217C503.736 210.337 503.862 210.513 503.92 210.716C503.933 210.763 503.942 210.811 503.946 210.859C503.967 211.052 503.925 211.246 503.825 211.412C503.726 211.578 503.576 211.708 503.396 211.781C503.317 211.814 503.234 211.836 503.149 211.848L499.739 212.205L472.137 215.123L462.486 216.139L435.026 219.041C434.946 219.045 434.865 219.044 434.785 219.038C434.736 219.023 434.687 219.008 434.629 218.993L331.597 182.658L331.248 182.534C331.167 182.508 331.093 182.467 331.028 182.413C330.872 182.298 330.757 182.137 330.699 181.953C330.64 181.769 330.642 181.571 330.704 181.387Z" fill="#3F3D56"/>
<path d="M420.271 315.367C420.038 315.33 419.83 315.203 419.691 315.012C419.552 314.822 419.493 314.585 419.529 314.352L434.045 218.018C434.081 217.783 434.208 217.573 434.399 217.432C434.589 217.291 434.828 217.232 435.062 217.267L435.07 217.268C435.303 217.306 435.512 217.433 435.651 217.623C435.79 217.814 435.848 218.051 435.813 218.284L421.296 314.618C421.261 314.853 421.134 315.063 420.943 315.204C420.752 315.345 420.513 315.404 420.279 315.369L420.271 315.367Z" fill="#3F3D56"/>
<path d="M457.068 309.256L447.413 310.275L458.706 214.741C458.706 214.741 471.601 212.406 471.946 213.342C472.158 213.901 457.16 308.644 457.068 309.256Z" fill="#3F3D56"/>
<path d="M331.25 182.533L330.99 226.1L408.116 255.488L435.813 218.284L331.25 182.533Z" fill="#3F3D56"/>
<path d="M502.483 210.118C501.838 209.307 500.97 208.704 499.986 208.381L401.58 175.603C401.304 175.51 401.02 175.441 400.732 175.397C400.418 175.343 400.1 175.319 399.781 175.326L399.941 174.328L400.926 173.615L424.294 156.696L502.335 180.613L502.47 207.665L502.483 210.118Z" fill="#3F3D56"/>
<path d="M335.181 252.473C335.291 252.483 335.401 252.506 335.507 252.541L365.7 262.458C366.078 262.582 366.391 262.851 366.571 263.206C366.751 263.561 366.782 263.973 366.658 264.351C366.534 264.729 366.265 265.042 365.91 265.222C365.555 265.401 365.143 265.433 364.765 265.309L334.571 255.392C334.22 255.277 333.925 255.036 333.74 254.717C333.556 254.397 333.495 254.021 333.571 253.66C333.646 253.298 333.852 252.978 334.149 252.759C334.446 252.54 334.813 252.438 335.181 252.473H335.181Z" fill="white"/>
<path d="M457.003 435.236C463.63 435.236 469.003 429.863 469.003 423.236C469.003 416.609 463.63 411.236 457.003 411.236C450.376 411.236 445.003 416.609 445.003 423.236C445.003 429.863 450.376 435.236 457.003 435.236Z" fill="#F2F2F2"/>
<path d="M151.003 479.236C157.63 479.236 163.003 473.863 163.003 467.236C163.003 460.609 157.63 455.236 151.003 455.236C144.376 455.236 139.003 460.609 139.003 467.236C139.003 473.863 144.376 479.236 151.003 479.236Z" fill="#F2F2F2"/>
<path d="M401.003 82.236C407.63 82.236 413.003 76.8634 413.003 70.236C413.003 63.6085 407.63 58.236 401.003 58.236C394.376 58.236 389.003 63.6085 389.003 70.236C389.003 76.8634 394.376 82.236 401.003 82.236Z" fill="#F2F2F2"/>
<path d="M420.692 270.121C419.136 270.797 417.452 271.124 415.757 271.078C414.062 271.032 412.397 270.615 410.88 269.857C409.364 269.098 408.032 268.016 406.979 266.687C405.926 265.358 405.176 263.814 404.784 262.164L363.772 258.021L377.303 241.415L414.174 247.895C416.989 247.42 419.881 247.995 422.301 249.509C424.721 251.024 426.502 253.374 427.305 256.113C428.108 258.853 427.879 261.792 426.66 264.374C425.441 266.956 423.318 269.001 420.692 270.121V270.121Z" fill="#FFB8B8"/>
<path d="M395.467 263.534L299.758 254.715L299.627 254.565L229.776 174.528C225.179 167.485 223.449 158.952 224.938 150.674C226.428 142.397 231.026 135.003 237.789 130.005V130.005C241.532 127.246 245.816 125.312 250.36 124.328C254.904 123.345 259.605 123.335 264.153 124.3C268.702 125.264 272.994 127.181 276.748 129.924C280.502 132.667 283.632 136.174 285.933 140.214L328.955 215.758L396.521 242.905L395.467 263.534Z" fill="#E6E6E6"/>
<path d="M635.69 109.617C633.313 92.1829 630.332 73.4651 618.036 60.8799C614.134 56.8866 609.464 53.7248 604.308 51.5851C599.151 49.4454 593.614 48.372 588.032 48.4298C582.449 48.4876 576.936 49.6753 571.825 51.9213C566.714 54.1673 562.11 57.4251 558.292 61.4982C549.341 71.047 545.388 84.455 545.027 97.5381C544.665 110.621 547.579 123.559 550.811 136.242C567.917 136.583 584.896 133.241 600.597 126.442C604.523 124.738 608.386 122.812 612.534 121.756C616.681 120.7 619.638 123.357 623.497 125.209L625.615 121.154C627.348 124.38 632.717 123.424 634.664 120.321C636.611 117.219 636.185 113.246 635.69 109.617Z" fill="#2F2E41"/>
<path d="M567.883 206.925L498.007 208.42C496.934 206.565 495.345 205.062 493.434 204.093C491.522 203.125 489.37 202.733 487.24 202.966C485.109 203.198 483.093 204.044 481.435 205.402C479.777 206.76 478.549 208.57 477.901 210.613C477.253 212.655 477.213 214.842 477.785 216.907C478.358 218.972 479.518 220.827 481.125 222.244C482.732 223.662 484.716 224.582 486.836 224.893C488.957 225.203 491.122 224.891 493.068 223.994C502.335 224.52 574.839 234.811 579.165 228.179C583.555 221.448 606.989 197.693 606.989 197.693L588.976 172.049L567.883 206.925Z" fill="#9E616A"/>
<path d="M584.911 126.865C603.043 126.865 617.741 112.167 617.741 94.0352C617.741 75.9036 603.043 61.2051 584.911 61.2051C566.78 61.2051 552.081 75.9036 552.081 94.0352C552.081 112.167 566.78 126.865 584.911 126.865Z" fill="#9E616A"/>
<path d="M637.494 157.204C633.625 149.504 631.745 139.992 623.497 137.496C617.928 135.81 595.4 138.336 590.324 141.181C581.881 145.915 589.532 154.784 584.551 163.084C579.136 172.106 564.419 190.213 559.004 199.236C555.281 205.439 567.821 223.645 565.808 230.594C563.795 237.542 563.698 245.341 567.127 251.711C570.196 257.413 565.756 262.456 568.842 268.148C572.052 274.068 575.991 296.201 573.004 302.236L571.004 308.236C590.851 309.402 607.538 285.692 627.262 283.194C632.161 282.574 637.247 281.763 641.284 278.92C647.231 274.731 649.581 267.131 651.051 260.007C658.121 225.186 653.35 189.001 637.494 157.204V157.204Z" fill="#3F3D56"/>
<path d="M667.25 238.505C664.485 230.96 659.481 197.969 659.481 197.969L628.157 197.05L643.471 234.822L601.681 293.325C601.681 293.325 601.758 293.454 601.899 293.683C599.702 293.33 597.449 293.649 595.436 294.598C593.423 295.547 591.743 297.081 590.617 299C589.49 300.919 588.969 303.133 589.122 305.353C589.274 307.573 590.094 309.696 591.472 311.442C592.851 313.189 594.725 314.479 596.849 315.143C598.972 315.808 601.247 315.815 603.376 315.165C605.504 314.516 607.386 313.238 608.777 311.501C610.167 309.763 611.001 307.647 611.168 305.428C611.322 305.516 611.502 305.548 611.677 305.518C611.852 305.488 612.011 305.398 612.126 305.263C616.776 299.428 670.014 246.051 667.25 238.505Z" fill="#9E616A"/>
<path d="M670.434 217.67C667.559 205.536 664.663 193.335 659.815 181.845C654.968 170.355 648.029 159.502 638.269 151.739C635.148 149.257 631.66 147.067 627.748 146.295C623.836 145.524 619.428 146.387 616.681 149.277C612.285 153.9 613.608 161.322 615.22 167.495C619.975 185.695 624.729 203.895 629.483 222.096C643.212 220.641 656.942 219.185 670.671 217.73L670.434 217.67Z" fill="#3F3D56"/>
<path d="M625.139 98.5888C623.93 90.6468 622.667 82.6384 619.827 75.1603C616.986 67.6821 612.408 60.6778 605.84 56.4414C595.442 49.7343 581.978 51.0279 570.32 54.886C561.303 57.8697 552.502 62.4046 546.144 69.6953C539.785 76.986 536.214 87.3891 538.58 96.922C551.016 93.9837 563.452 91.0454 575.889 88.1071L574.527 89.0691C578.611 91.1053 582.176 94.045 584.954 97.6651C587.732 101.285 589.648 105.49 590.558 109.962C591.447 114.488 591.32 119.154 590.184 123.625C589.049 128.095 586.934 132.257 583.992 135.81C592.474 132.801 600.956 129.792 609.437 126.783C614.673 124.926 620.276 122.786 623.38 118.023C626.979 112.5 626.143 105.18 625.139 98.5888Z" fill="#2F2E41"/>
</g>
<defs>
<clipPath id="clip0_112_1022">
<rect width="862.703" height="644.786" fill="white"/>
</clipPath>
</defs>
</svg>
