<svg width="671" height="478" viewBox="0 0 671 478" fill="none" xmlns="http://www.w3.org/2000/svg">
<g clip-path="url(#clip0_111_207)">
<path d="M612.153 430.003C618.033 440.396 613.047 475.499 613.047 475.499C613.047 475.499 580.397 461.679 574.518 451.29C571.702 446.299 570.982 440.395 572.516 434.874C574.051 429.353 577.715 424.667 582.702 421.846C587.69 419.025 593.594 418.3 599.116 419.829C604.638 421.359 609.328 425.018 612.153 430.003Z" fill="#F1F1F1"/>
<path d="M613.52 475.454L612.826 475.6C606.145 443.86 582.816 422.337 582.581 422.123L583.058 421.599C583.294 421.814 606.79 443.484 613.52 475.454Z" fill="white"/>
<path d="M665.577 441.838C657.598 456.311 612.615 475.918 612.615 475.918C612.615 475.918 605.199 427.412 613.173 412.943C617.005 405.993 623.44 400.851 631.063 398.647C638.686 396.442 646.873 397.356 653.822 401.188C660.771 405.02 665.914 411.455 668.118 419.078C670.323 426.702 669.408 434.888 665.577 441.838Z" fill="#F1F1F1"/>
<path d="M613.013 476.443L612.337 475.732C644.888 444.819 653.314 401.703 653.396 401.271L654.36 401.453C654.278 401.887 645.8 445.305 613.013 476.443Z" fill="white"/>
<path d="M157.613 332.242C152.465 332.225 147.34 331.562 142.357 330.268L141.375 329.997L140.464 329.54C107.526 313.026 79.7387 291.213 57.8725 264.706C39.7719 242.636 25.6599 217.577 16.171 190.657C4.82371 158.427 -0.635438 124.419 0.0541421 90.2571C0.0680565 89.54 0.0798324 88.9863 0.0798324 88.6048C0.0798324 71.9983 9.2977 57.4274 23.5634 51.4833C34.4817 46.934 133.614 6.21628 140.776 3.27431C154.265 -3.48458 168.656 2.15677 170.959 3.1433C176.124 5.25521 267.766 42.7379 287.57 52.1679C307.98 61.8868 313.425 79.3465 313.425 88.1308C313.425 127.9 306.538 165.067 292.954 198.601C281.983 225.743 266.435 250.802 246.985 272.683C209.46 314.912 171.925 329.883 171.563 330.015C167.077 331.558 162.357 332.312 157.613 332.242ZM148.786 310.377C152.04 311.107 159.533 312.201 164.416 310.42C170.62 308.157 202.036 291.866 231.394 258.828C271.956 213.182 292.537 155.8 292.567 88.2775C292.495 86.9095 291.523 77.1527 278.602 71.0002C259.183 61.7526 163.929 22.8033 162.969 22.4108L162.705 22.2992C160.709 21.4627 154.356 19.7007 149.977 21.9955L149.1 22.4043C148.039 22.8404 42.8088 66.0607 31.5859 70.7369C23.7352 74.008 20.938 82.1117 20.938 88.6049C20.938 89.0794 20.9257 89.7696 20.9083 90.6617C20.0114 136.863 30.7027 250.551 148.786 310.377Z" fill="#3F3D56"/>
<path d="M145.138 12.7573C145.138 12.7573 38.9518 56.3697 27.5746 61.1102C16.1974 65.8507 10.5089 77.2278 10.5089 88.605C10.5089 99.9822 1.97603 248.439 145.138 320.217C145.138 320.217 158.132 323.812 167.99 320.217C177.848 316.622 302.996 255.944 302.996 88.1309C302.996 88.1309 302.996 71.0652 283.086 61.5842C263.176 52.1033 166.915 12.7573 166.915 12.7573C166.915 12.7573 155.093 7.54275 145.138 12.7573Z" fill="#329EF1"/>
<path opacity="0.1" d="M156.517 46.8887V279.546C156.517 279.546 49.3814 227.975 50.3295 92.3973L156.517 46.8887Z" fill="black"/>
<path d="M157.913 214.102L123.785 170.221L143.632 154.785L159.791 175.562L214.381 117.935L232.635 135.231L157.913 214.102Z" fill="white"/>
<path d="M669.586 478H357.74C357.523 478 357.315 477.914 357.161 477.76C357.008 477.607 356.922 477.399 356.922 477.182C356.922 476.964 357.008 476.756 357.161 476.603C357.315 476.449 357.523 476.363 357.74 476.363H669.586C669.803 476.363 670.011 476.449 670.165 476.603C670.318 476.756 670.405 476.964 670.405 477.182C670.405 477.399 670.318 477.607 670.165 477.76C670.011 477.914 669.803 478 669.586 478Z" fill="#CACACA"/>
<path d="M447.886 465.098L460.544 465.097L466.566 416.272L447.883 416.273L447.886 465.098Z" fill="#FFB8B8"/>
<path d="M444.655 460.965L469.584 460.964H469.585C473.799 460.964 477.839 462.638 480.819 465.617C483.798 468.597 485.472 472.637 485.472 476.851V477.367L444.656 477.369L444.655 460.965Z" fill="#2F2E41"/>
<path d="M490.446 465.098L503.104 465.097L509.127 416.272L490.444 416.273L490.446 465.098Z" fill="#FFB8B8"/>
<path d="M487.218 460.965L512.147 460.964H512.148C516.361 460.964 520.402 462.638 523.381 465.617C526.361 468.597 528.035 472.637 528.035 476.851V477.367L487.218 477.369V460.965Z" fill="#2F2E41"/>
<path d="M467.78 293.634L470.817 448.534L446.253 447.011L429.212 348.348L423.83 281.077L467.78 293.634Z" fill="#2F2E41"/>
<path d="M509.936 267.624L513.378 450.99L484.731 450.171L478.543 341.172L467.78 301.707L423.83 281.078L431.006 231.746L495.585 230.849L509.936 267.624Z" fill="#2F2E41"/>
<path d="M460.546 103.484C472.678 103.484 482.513 93.649 482.513 81.517C482.513 69.385 472.678 59.55 460.546 59.55C448.414 59.55 438.579 69.385 438.579 81.517C438.579 93.649 448.414 103.484 460.546 103.484Z" fill="#FFB8B8"/>
<path d="M478.767 112.738L482.132 117.835L491.102 142.949L483.926 240.715L441.769 241.613L436.389 129.495L447.662 115.403L478.767 112.738Z" fill="#CCCCCC"/>
<path d="M419.346 132.186L412.17 131.289C412.17 131.289 410.376 132.186 409.479 138.464C408.582 144.743 397.819 200.353 397.819 200.353L412.17 268.52L428.315 246.994L418.449 209.322L428.315 171.651L419.346 132.186Z" fill="#2F2E41"/>
<path d="M510.833 131.29H516.215L529.669 203.941L517.112 260.448L504.554 239.818L508.142 217.395L506.349 197.663L500.07 186.002L510.833 131.29Z" fill="#2F2E41"/>
<path d="M473.528 81.517L469.534 80.5185C469.534 80.5185 466.538 63.544 459.549 65.541C452.559 67.538 434.586 69.535 434.586 61.547C434.586 53.559 451.561 46.5695 461.546 47.568C471.53 48.5665 484.283 51.879 487.507 66.5395C492.674 90.0409 476.844 95.977 476.844 95.977L477.108 95.1213C477.839 92.7454 477.892 90.2123 477.259 87.8082C476.626 85.4042 475.334 83.225 473.528 81.517Z" fill="#2F2E41"/>
<path d="M413.067 131.289L441.769 119.629L448.496 114.695L468.677 203.941L478.095 112.005L515.318 131.289L502.761 192.281L500.967 215.601L506.348 234.437C506.348 234.437 525.184 247.891 518.906 262.242C512.627 276.593 505.451 277.49 505.451 277.49C505.451 277.49 474.956 248.788 473.162 241.612C471.368 234.437 468.677 221.879 468.677 221.879C468.677 221.879 453.429 279.283 435.49 278.387C417.552 277.49 417.552 258.654 417.552 258.654L422.036 238.921L429.212 218.292L425.624 184.208L413.067 131.289Z" fill="#2F2E41"/>
</g>
<defs>
<clipPath id="clip0_111_207">
<rect width="671" height="478" fill="white"/>
</clipPath>
</defs>
</svg>
