<svg width="400" height="299" viewBox="0 0 400 299" fill="none" xmlns="http://www.w3.org/2000/svg">
<g clip-path="url(#clip0_112_289)">
<path d="M292.079 284.077H284.12L280.332 253.379H292.079V284.077Z" fill="#9E616A"/>
<path d="M296.279 297.867H290.572L289.553 292.479L286.944 297.867H271.806C271.08 297.867 270.373 297.635 269.789 297.205C269.204 296.775 268.773 296.17 268.557 295.477C268.341 294.784 268.352 294.041 268.589 293.355C268.825 292.669 269.275 292.076 269.872 291.664L281.961 283.315V277.867L294.676 278.626L296.279 297.867Z" fill="#2F2E41"/>
<path d="M339.362 274.033L332.976 278.782L311.618 256.409L321.044 249.399L339.362 274.033Z" fill="#9E616A"/>
<path d="M350.962 282.592L346.382 285.998L342.349 282.282L343.47 288.163L331.323 297.196C330.741 297.629 330.035 297.865 329.31 297.868C328.584 297.872 327.876 297.644 327.29 297.217C326.703 296.79 326.268 296.186 326.049 295.495C325.829 294.803 325.837 294.059 326.07 293.372L330.789 279.459L327.538 275.088L338.194 268.109L350.962 282.592Z" fill="#2F2E41"/>
<path d="M301.345 125.69C301.345 125.69 316.445 138.736 309.478 175.928L300.972 212.37L328.713 258.391L319.868 269.152L283.804 219.339L270.736 188.685L267.069 134.126L301.345 125.69Z" fill="#2F2E41"/>
<path d="M277.939 197.421L277.031 211.487L279.81 271.429L292.89 269.151L295.389 226.473L277.939 197.421Z" fill="#2F2E41"/>
<path d="M110.093 291.295H117.211L120.597 263.842H110.093V291.295Z" fill="#FFB6B6"/>
<path d="M108.278 288.971H110.281L118.103 285.791L122.295 288.971C124.664 288.971 126.936 289.912 128.611 291.587C130.287 293.262 131.228 295.534 131.228 297.903V298.194H108.278V288.971Z" fill="#2F2E41"/>
<path d="M137.675 286.81L144.617 288.378L153.968 262.345L143.721 260.031L137.675 286.81Z" fill="#FFB6B6"/>
<path d="M136.416 284.143L138.37 284.585L146.7 283.205L150.089 287.23V287.231C152.4 287.753 154.409 289.171 155.674 291.174C156.939 293.177 157.356 295.6 156.835 297.911L156.771 298.194L134.385 293.14L136.416 284.143Z" fill="#2F2E41"/>
<path d="M101.079 123.462C97.7418 133.527 98.0946 144.451 101.881 156.176L103.5 222.191C103.5 222.191 101.088 265.482 108.87 280.716H120.155L125.743 218.238L126.445 176.302L150.639 211.682L135.229 279.695L149.119 280.937L174.126 207.126L143.272 135.517L101.079 123.462Z" fill="#2F2E41"/>
<path d="M231.226 94.7952C239.858 87.0166 252.697 83.1054 263.467 87.4671C252.419 93.6007 243.897 103.444 239.409 115.256C237.694 119.818 236.262 125.07 232.045 127.512C229.421 129.032 226.156 129.106 223.214 128.373C220.272 127.639 217.575 126.169 214.915 124.713L214.158 124.696C217.556 113.584 222.594 102.574 231.226 94.7952Z" fill="#E6E6E6"/>
<path d="M263.407 87.7033C253.868 88.936 244.961 93.1428 237.949 99.7262C236.414 101.117 235.109 102.74 234.08 104.537C233.134 106.32 232.683 108.324 232.773 110.34C232.82 112.222 233.086 114.141 232.674 116.002C232.449 116.951 232.026 117.842 231.433 118.616C230.84 119.39 230.089 120.03 229.231 120.494C227.124 121.706 224.706 122.087 222.329 122.379C219.69 122.702 216.944 122.996 214.659 124.477C214.383 124.656 214.121 124.216 214.397 124.037C218.372 121.462 223.401 122.399 227.675 120.68C229.669 119.878 231.434 118.47 232.058 116.341C232.604 114.48 232.332 112.5 232.269 110.596C232.151 108.63 232.517 106.666 233.335 104.874C234.269 103.03 235.51 101.359 237.005 99.9317C240.319 96.6647 244.126 93.9391 248.287 91.8548C253.023 89.4497 258.135 87.8724 263.402 87.1911C263.728 87.1491 263.731 87.6615 263.407 87.7033Z" fill="white"/>
<path d="M240.082 97.4735C239.137 96.1471 238.695 94.5281 238.833 92.9056C238.972 91.283 239.683 89.7626 240.839 88.6158C241.074 88.3845 241.444 88.7384 241.209 88.97C240.13 90.0359 239.468 91.4523 239.342 92.9635C239.216 94.4746 239.635 95.9811 240.522 97.2109C240.714 97.4784 240.273 97.7394 240.082 97.4735Z" fill="white"/>
<path d="M232.624 109.389C235.902 109.97 239.278 109.294 242.08 107.496C242.357 107.318 242.619 107.758 242.342 107.936C239.423 109.802 235.908 110.498 232.499 109.886C232.174 109.828 232.301 109.331 232.624 109.389Z" fill="white"/>
<path d="M253.064 90.1275C253.323 90.7169 253.724 91.2327 254.231 91.6288C254.738 92.0249 255.336 92.2888 255.971 92.3968C256.296 92.4512 256.169 92.9474 255.845 92.8934C255.145 92.7708 254.485 92.4786 253.924 92.0422C253.362 91.6058 252.916 91.0386 252.624 90.39C252.592 90.3312 252.583 90.2622 252.599 90.1969C252.616 90.1317 252.656 90.0752 252.713 90.0389C252.771 90.0044 252.841 89.9944 252.907 90.011C252.973 90.0276 253.029 90.0694 253.064 90.1275Z" fill="white"/>
<path d="M275.327 124.979C275.122 124.951 274.918 124.923 274.711 124.898C271.963 124.533 269.19 124.392 266.42 124.477C266.205 124.48 265.988 124.486 265.775 124.495C259.102 124.77 252.538 126.281 246.417 128.951C243.982 130.016 241.632 131.265 239.386 132.686C236.286 134.65 233.08 137.025 229.613 137.826C229.253 137.913 228.887 137.978 228.518 138.021L214.196 125.62C214.178 125.576 214.157 125.534 214.138 125.489L213.544 125.02C213.654 124.939 213.771 124.857 213.881 124.776C213.945 124.728 214.013 124.683 214.077 124.636C214.12 124.605 214.164 124.574 214.202 124.544C214.216 124.534 214.231 124.524 214.243 124.517C214.28 124.486 214.318 124.462 214.353 124.435C215.004 123.975 215.658 123.518 216.317 123.065C216.32 123.062 216.32 123.062 216.326 123.062C221.314 119.563 226.699 116.668 232.369 114.438C232.539 114.374 232.712 114.306 232.888 114.247C235.442 113.298 238.069 112.559 240.742 112.037C242.207 111.756 243.686 111.55 245.172 111.419C249.012 111.087 252.88 111.361 256.635 112.231C264.12 113.966 270.966 118.076 275.022 124.486C275.125 124.65 275.226 124.812 275.327 124.979Z" fill="#E6E6E6"/>
<path d="M275.137 125.133C266.779 120.374 257.134 118.37 247.572 119.405C245.509 119.592 243.489 120.102 241.586 120.917C239.757 121.771 238.19 123.1 237.049 124.764C235.953 126.295 235.01 127.987 233.561 129.224C232.81 129.847 231.936 130.304 230.996 130.565C230.056 130.825 229.072 130.885 228.108 130.739C225.695 130.437 223.535 129.287 221.462 128.088C219.16 126.757 216.79 125.339 214.075 125.145C213.746 125.122 213.801 124.613 214.13 124.636C218.854 124.973 222.306 128.749 226.753 129.95C228.828 130.51 231.085 130.448 232.865 129.125C234.422 127.968 235.396 126.223 236.492 124.664C237.582 123.024 239.057 121.676 240.788 120.737C242.644 119.828 244.641 119.24 246.694 119.001C251.307 118.388 255.988 118.504 260.565 119.345C265.794 120.275 270.826 122.094 275.442 124.721C275.727 124.884 275.421 125.295 275.137 125.133Z" fill="white"/>
<path d="M250.631 118.891C250.675 117.263 251.297 115.704 252.384 114.492C253.472 113.28 254.955 112.494 256.568 112.274C256.895 112.231 256.978 112.736 256.651 112.78C255.148 112.981 253.766 113.714 252.756 114.844C251.745 115.975 251.172 117.43 251.14 118.946C251.133 119.275 250.624 119.218 250.631 118.891Z" fill="white"/>
<path d="M237.502 123.915C239.77 126.352 242.873 127.845 246.192 128.096C246.521 128.121 246.465 128.63 246.137 128.605C242.683 128.338 239.457 126.777 237.103 124.236C236.879 123.994 237.279 123.674 237.502 123.915Z" fill="white"/>
<path d="M265.419 120.842C265.271 121.468 265.281 122.121 265.447 122.743C265.614 123.365 265.932 123.935 266.374 124.404C266.601 124.643 266.201 124.962 265.975 124.725C265.489 124.205 265.138 123.574 264.953 122.888C264.767 122.201 264.753 121.48 264.91 120.787C264.92 120.72 264.954 120.659 265.006 120.617C265.059 120.575 265.125 120.554 265.192 120.56C265.26 120.567 265.321 120.601 265.364 120.654C265.406 120.707 265.426 120.774 265.419 120.842Z" fill="white"/>
<path d="M23.7733 290.797C23.101 293.319 21.3344 295.419 19.2016 296.95C18.8539 297.2 18.4968 297.432 18.1352 297.65C18.0239 297.715 17.9126 297.784 17.7967 297.844C17.6715 297.919 17.5463 297.988 17.4212 298.053H7.39221C7.21138 297.687 7.0352 297.316 6.859 296.95C2.56089 287.917 -0.457531 278.171 0.0571302 268.244C0.261315 264.394 1.07025 260.6 2.45425 257.001C5.20838 249.828 10.2344 243.619 17.1476 240.494C17.3191 240.416 17.5 240.337 17.6762 240.263C17.6205 240.462 17.5649 240.657 17.5092 240.856C16.7676 243.528 16.2435 246.255 15.9421 249.012C15.9143 249.225 15.8911 249.438 15.8725 249.656C15.2138 256.304 15.7987 263.016 17.5973 269.45C17.602 269.464 17.6066 269.482 17.6113 269.496C18.0054 270.92 18.4629 272.321 18.9837 273.702C19.3917 274.791 19.8322 275.867 20.3144 276.924C22.3267 281.361 25.0251 286.091 23.7733 290.797Z" fill="#E6E6E6"/>
<path d="M17.8017 240.471C17.7043 240.601 17.6069 240.726 17.5096 240.856C15.4731 243.555 13.7438 246.472 12.3537 249.554C12.2795 249.707 12.2099 249.86 12.1497 250.018C10.245 254.322 9.02169 258.895 8.52385 263.575C8.51846 263.608 8.51537 263.64 8.51458 263.673C8.39867 264.767 8.32911 265.87 8.30129 266.974C8.19819 269.042 8.42195 271.114 8.96432 273.113C9.45887 274.745 10.3255 276.24 11.4959 277.48C11.6118 277.606 11.7277 277.731 11.8529 277.851C11.9457 277.949 12.0477 278.046 12.145 278.139C13.0816 279.034 14.1063 279.864 14.9873 280.823C15.391 281.254 15.7557 281.719 16.0769 282.214C16.5894 283.044 16.9206 283.973 17.0484 284.94C17.1763 285.907 17.098 286.89 16.8187 287.825C16.1881 290.171 14.7462 292.151 13.2717 294.038C12.5345 294.984 11.7741 295.939 11.1157 296.95C10.8746 297.311 10.6521 297.677 10.4481 298.053H9.86385C10.0586 297.677 10.2719 297.311 10.5037 296.95C12.1961 294.283 14.6025 291.993 15.8497 289.058C16.6936 287.078 16.9486 284.834 15.8822 282.891C15.5696 282.326 15.1914 281.8 14.7555 281.324C13.907 280.364 12.8916 279.544 11.9689 278.677C11.737 278.459 11.5099 278.236 11.2919 278.004C10.1366 276.831 9.24504 275.424 8.67688 273.878C8.03346 271.914 7.72927 269.856 7.77739 267.79C7.77739 266.473 7.84694 265.147 7.97676 263.83C7.99067 263.663 8.00922 263.492 8.02777 263.32C8.97597 255.034 12.125 247.153 17.1479 240.494C17.2407 240.365 17.338 240.239 17.4354 240.114C17.6348 239.855 18.001 240.216 17.8017 240.471Z" fill="white"/>
<path d="M8.21452 263.874C6.60854 263.605 5.15075 262.773 4.10147 261.527C3.05219 260.282 2.47976 258.704 2.48639 257.076C2.48728 257.009 2.5139 256.946 2.56066 256.899C2.60742 256.852 2.67066 256.824 2.73705 256.823C2.80345 256.821 2.86781 256.846 2.91659 256.891C2.96536 256.936 2.99474 256.998 2.99853 257.065C2.98955 258.581 3.52292 260.051 4.50238 261.208C5.48183 262.366 6.84286 263.135 8.33981 263.378C8.66505 263.431 8.5379 263.927 8.21452 263.874Z" fill="white"/>
<path d="M11.3674 277.574C14.0959 275.667 16.0053 272.801 16.7149 269.549C16.7849 269.226 17.2814 269.352 17.2114 269.674C16.4667 273.057 14.4736 276.035 11.63 278.013C11.3588 278.202 11.0977 277.761 11.3674 277.574Z" fill="white"/>
<path d="M12.1999 249.5C12.7995 249.734 13.4478 249.815 14.0866 249.737C14.7255 249.658 15.3347 249.422 15.8597 249.05C16.1284 248.858 16.3892 249.299 16.1223 249.489C15.5403 249.898 14.8671 250.158 14.1615 250.246C13.4559 250.335 12.7394 250.249 12.0746 249.997C12.0099 249.978 11.9547 249.936 11.9203 249.878C11.8858 249.82 11.8746 249.751 11.8889 249.686C11.9059 249.62 11.948 249.564 12.0062 249.529C12.0645 249.494 12.134 249.484 12.1999 249.5Z" fill="white"/>
<path d="M52.5853 258.401C52.423 258.526 52.2561 258.651 52.0938 258.781C49.8925 260.466 47.8316 262.327 45.9316 264.345C45.7833 264.498 45.6349 264.656 45.4912 264.813L45.4865 264.818C40.9816 269.708 37.4197 275.389 34.9801 281.575L34.9662 281.616C34.9616 281.63 34.9568 281.64 34.9522 281.653C33.9852 284.129 33.2057 286.674 32.6201 289.267C32.0544 291.798 31.5908 294.511 30.7052 296.95C30.5707 297.325 30.4224 297.696 30.2647 298.053H9.65039C9.71993 297.687 9.79412 297.316 9.86831 296.95C10.917 291.577 12.5559 286.337 14.7553 281.324C14.8295 281.157 14.9037 280.99 14.9871 280.823C16.1226 278.347 17.4576 275.966 18.9792 273.706C18.9791 273.706 18.9794 273.705 18.9796 273.705C18.9798 273.704 18.9801 273.703 18.9806 273.703C18.981 273.703 18.9814 273.702 18.982 273.702C18.9826 273.702 18.9833 273.702 18.9839 273.702C19.8194 272.468 20.7169 271.278 21.673 270.136C24.1528 267.186 27.082 264.645 30.3528 262.606C30.3714 262.592 30.3945 262.583 30.4131 262.569C36.9228 258.531 44.6381 256.607 52.0149 258.271H52.0196C52.2097 258.313 52.3952 258.355 52.5853 258.401Z" fill="#E6E6E6"/>
<path d="M52.5621 258.647C52.4045 258.688 52.2469 258.735 52.0938 258.781C48.8444 259.71 45.708 260.996 42.742 262.616C42.5936 262.694 42.4452 262.778 42.2968 262.861C38.1979 265.149 34.4772 268.057 31.2664 271.481C31.2639 271.483 31.2622 271.487 31.2618 271.49C31.2247 271.527 31.1829 271.569 31.1505 271.606C30.4086 272.403 29.6946 273.233 29.0176 274.087C27.6935 275.677 26.6265 277.465 25.8555 279.386C25.2663 280.987 25.0584 282.703 25.2481 284.398C25.262 284.57 25.2852 284.737 25.3084 284.908C25.3269 285.043 25.3455 285.177 25.3687 285.316C25.6747 287.176 26.2032 289.04 26.0549 290.936C25.9646 291.908 25.6696 292.849 25.1893 293.699C24.709 294.548 24.0543 295.286 23.2683 295.865C22.7339 296.278 22.1628 296.641 21.562 296.95C20.7031 297.392 19.8081 297.762 18.8867 298.053H17.0645C17.3103 297.984 17.5514 297.914 17.7971 297.844C18.6691 297.598 19.5254 297.3 20.3611 296.95C20.8386 296.75 21.3031 296.521 21.7521 296.263C23.616 295.192 25.1693 293.551 25.4938 291.358C25.7767 289.438 25.2296 287.519 24.905 285.641C24.8494 285.316 24.7984 284.996 24.7705 284.677C24.5492 283.05 24.6836 281.396 25.1646 279.827C25.8318 277.869 26.8291 276.041 28.1135 274.42C28.908 273.365 29.7561 272.352 30.6544 271.383C30.7656 271.258 30.8816 271.133 31.0021 271.008C34.2804 267.559 38.0657 264.631 42.2273 262.324H42.2319C45.3263 260.601 48.609 259.241 52.0151 258.271H52.0198C52.1728 258.225 52.3304 258.178 52.4834 258.137C52.8034 258.053 52.8774 258.559 52.5621 258.647Z" fill="white"/>
<path d="M30.8185 271.559C29.6986 270.377 29.0355 268.835 28.9475 267.209C28.8595 265.583 29.3523 263.979 30.3381 262.682C30.5384 262.421 30.9543 262.72 30.7537 262.982C29.8336 264.187 29.3746 265.682 29.4597 267.196C29.5447 268.71 30.1681 270.144 31.2175 271.238C31.4452 271.476 31.0449 271.796 30.8185 271.559Z" fill="white"/>
<path d="M25.0877 284.395C28.4144 284.515 31.6642 283.377 34.1889 281.207C34.4389 280.992 34.7596 281.392 34.51 281.606C31.8785 283.859 28.4942 285.037 25.0326 284.905C24.7026 284.892 24.7595 284.383 25.0877 284.395Z" fill="white"/>
<path d="M42.6544 262.482C42.9924 263.03 43.4612 263.485 44.0185 263.807C44.5759 264.128 45.2045 264.307 45.8479 264.326C46.1778 264.334 46.1205 264.843 45.7928 264.835C45.0821 264.811 44.3881 264.613 43.7715 264.259C43.1548 263.904 42.6343 263.405 42.2554 262.803C42.215 262.749 42.1965 262.682 42.2037 262.615C42.2109 262.548 42.2434 262.487 42.2944 262.443C42.3474 262.401 42.415 262.381 42.4824 262.388C42.5498 262.396 42.6117 262.429 42.6544 262.482Z" fill="white"/>
<path d="M211.606 80.2928C211.13 80.9187 210.523 81.4327 209.827 81.7985C209.131 82.1643 208.363 82.3731 207.578 82.4101C206.792 82.4472 206.008 82.3115 205.281 82.0128C204.554 81.7141 203.901 81.2595 203.368 80.6811L185.842 88.3037L187.549 78.5198L203.93 72.7812C204.961 71.9509 206.261 71.5275 207.583 71.5914C208.906 71.6553 210.158 72.202 211.105 73.1279C212.051 74.0538 212.624 75.2945 212.717 76.6151C212.809 77.9356 212.414 79.2442 211.606 80.2928Z" fill="#FFB8B8"/>
<path d="M199.91 83.3476L159.202 101.481L159.114 101.449L112.717 84.9157C109.262 83.1096 106.627 80.0506 105.353 76.3652C104.078 72.6797 104.261 68.6466 105.864 65.0917C106.752 63.1275 108.046 61.3737 109.661 59.9458C111.276 58.5179 113.175 57.4482 115.233 56.8071C117.291 56.166 119.462 55.968 121.602 56.2262C123.742 56.4845 125.803 57.193 127.65 58.3053L162.178 79.1046L195.659 74.7653L199.91 83.3476Z" fill="#E6E6E6"/>
<path d="M400 298.429C400 298.501 399.986 298.573 399.958 298.64C399.931 298.707 399.89 298.768 399.839 298.819C399.788 298.87 399.727 298.911 399.66 298.939C399.593 298.966 399.521 298.981 399.448 298.98H0.567373C0.421039 298.98 0.280703 298.922 0.177229 298.819C0.0737553 298.715 0.015625 298.575 0.015625 298.429C0.015625 298.282 0.0737553 298.142 0.177229 298.038C0.280703 297.935 0.421039 297.877 0.567373 297.877H399.448C399.521 297.877 399.593 297.891 399.66 297.918C399.727 297.946 399.788 297.987 399.839 298.038C399.89 298.089 399.931 298.15 399.958 298.217C399.986 298.284 400 298.356 400 298.429Z" fill="#CCCCCC"/>
<path d="M145.284 137.632L104.248 131.068C103.172 130.723 102.183 130.15 101.349 129.387C100.515 128.624 99.857 127.69 99.4184 126.648C98.9799 125.606 98.772 124.482 98.8089 123.353C98.8458 122.223 99.1267 121.115 99.6323 120.104L101.493 116.382L100.77 77.2739C100.683 72.1869 101.937 67.1666 104.406 62.7182C106.875 58.2697 110.473 54.55 114.836 51.9332L118.838 49.5404L120.86 44.4046L139.508 44.8595L139.563 51.5952L146.241 62.2447V62.2888L145.822 120.252L143.981 126.234L146.764 133.192L145.284 137.632Z" fill="#E6E6E6"/>
<path d="M131.892 38.0184C141.25 38.0184 148.836 30.4323 148.836 21.0744C148.836 11.7165 141.25 4.1304 131.892 4.1304C122.534 4.1304 114.948 11.7165 114.948 21.0744C114.948 30.4323 122.534 38.0184 131.892 38.0184Z" fill="#FFB8B8"/>
<path d="M114.248 24.7681C113.743 22.6391 113.975 19.6431 114.26 17.4994C115.009 11.8792 118.13 6.53626 122.872 3.37145C123.771 2.68856 124.839 2.26398 125.962 2.14347C127.084 2.09664 128.3 2.69716 128.644 3.76581C128.927 3.06049 129.351 2.42058 129.89 1.88557C130.43 1.35055 131.073 0.931784 131.781 0.655119C133.203 0.110485 134.731 -0.095483 136.246 0.0535421C139.183 0.29559 141.999 1.32812 144.396 3.04156C146.793 4.75499 148.681 7.08541 149.861 9.7855C150.313 10.8606 151.578 6.88939 152.151 7.90523C152.678 8.96114 153.597 9.76887 154.712 10.1556C155.836 10.4691 156.292 15.0983 156.734 14.0189C157.077 14.8166 157.213 15.6882 157.128 16.5525C157.044 17.4167 156.742 18.2456 156.251 18.9618C155.76 19.678 155.096 20.2583 154.32 20.6486C153.544 21.0389 152.682 21.2266 151.815 21.1941C150.671 21.1513 149.577 20.7307 148.447 20.5496C144.407 19.9022 140.12 22.8323 139.256 26.8325C138.947 25.6757 138.453 24.5764 137.793 23.5771C137.458 23.0801 137.009 22.6703 136.484 22.3817C135.959 22.0931 135.372 21.934 134.773 21.9178C133.624 21.9609 132.613 22.7125 131.867 23.5884C131.121 24.4643 130.561 25.4861 129.809 26.3573C127.605 28.9134 124.622 34.8746 121.48 34.4398C119 34.0967 114.938 27.6751 114.248 24.7681Z" fill="#2F2E41"/>
<path d="M234.316 99.4932C234.435 98.7208 234.276 97.9313 233.868 97.2647C233.46 96.5981 232.829 96.0976 232.088 95.8518L186.457 80.6544C186.02 80.5081 185.557 80.4549 185.098 80.4983L173.661 81.5799L167.098 82.2023L154.988 83.3468C154.257 83.4167 153.569 83.7274 153.034 84.23C152.498 84.7326 152.144 85.3987 152.028 86.124L145.879 124.532C145.763 125.282 145.906 126.048 146.284 126.705C146.662 127.362 147.252 127.871 147.959 128.147L194.065 145.944C194.281 146.028 194.506 146.089 194.736 146.124C195.069 146.178 195.41 146.181 195.744 146.132L225.537 141.716C226.24 141.615 226.891 141.289 227.394 140.788C227.897 140.287 228.225 139.637 228.33 138.935L234.316 99.4932Z" fill="white"/>
<path d="M149.004 125.441L195.11 143.237C195.177 143.264 195.25 143.272 195.322 143.262L225.111 138.847C225.199 138.835 225.281 138.794 225.344 138.731C225.407 138.669 225.448 138.587 225.461 138.498L231.451 99.0565C231.465 98.9602 231.444 98.8622 231.394 98.7791C231.343 98.6961 231.265 98.6333 231.173 98.6014L230.866 98.4976L185.54 83.4074C185.519 83.4001 185.498 83.3949 185.476 83.392C185.441 83.3856 185.405 83.3837 185.37 83.3865L157.474 86.0262L155.26 86.2339C155.17 86.2436 155.084 86.2827 155.018 86.3453C154.951 86.4079 154.907 86.4906 154.892 86.5806L148.744 124.988C148.729 125.081 148.747 125.178 148.794 125.26C148.841 125.342 148.915 125.406 149.004 125.441Z" fill="#329EF1"/>
<path d="M157.474 86.0262L185.37 83.3865C185.405 83.3837 185.441 83.3856 185.476 83.392C185.498 83.3949 185.519 83.4001 185.54 83.4074L230.866 98.4976L218.91 99.7632L214.436 100.235L201.703 101.58C201.666 101.582 201.629 101.581 201.592 101.578C201.569 101.572 201.546 101.565 201.519 101.558L157.474 86.0262Z" fill="#2F2E41"/>
<path d="M147.958 128.149L194.064 145.946C194.281 146.029 194.507 146.088 194.737 146.122C195.071 146.177 195.411 146.181 195.746 146.134L225.535 141.719C226.238 141.617 226.889 141.291 227.393 140.79C227.896 140.288 228.225 139.638 228.33 138.936L234.316 99.4932C234.404 98.9118 234.337 98.3172 234.122 97.77C234.091 97.6972 234.061 97.6245 234.026 97.5559C233.788 97.0562 233.427 96.6257 232.976 96.3051C232.705 96.1102 232.405 95.9575 232.088 95.8523L232.034 95.8332L186.46 80.6541C186.274 80.5947 186.084 80.5485 185.891 80.5159C185.628 80.4786 185.361 80.4734 185.096 80.5005L173.661 81.5784L167.099 82.2043L154.987 83.3479C154.491 83.3942 154.013 83.5523 153.587 83.8104C153.554 83.8263 153.523 83.8451 153.493 83.8666C153.472 83.8804 153.452 83.8956 153.433 83.9121C153.061 84.1657 152.745 84.4924 152.504 84.8721C152.263 85.2518 152.101 85.6767 152.029 86.1208L145.877 124.532C145.761 125.282 145.903 126.049 146.282 126.706C146.66 127.364 147.251 127.873 147.958 128.149ZM152.846 86.2547C152.921 85.7943 153.125 85.3647 153.435 85.0161C153.528 84.904 153.633 84.8016 153.748 84.7107C154.061 84.4578 154.43 84.2853 154.825 84.2081C154.903 84.1921 154.982 84.1809 155.061 84.1748L175.455 82.2482L185.176 81.3232C185.242 81.3155 185.302 81.3166 185.363 81.3132C185.51 81.3101 185.657 81.321 185.802 81.3458C185.936 81.3631 186.067 81.3944 186.194 81.4391L231.822 96.6373C231.858 96.6501 231.889 96.6624 231.925 96.6751C232.34 96.8295 232.705 97.0947 232.979 97.4419C233.196 97.7077 233.355 98.0163 233.444 98.3475C233.534 98.6787 233.552 99.0251 233.499 99.364L227.508 138.811C227.43 139.337 227.184 139.823 226.808 140.199C226.431 140.575 225.944 140.82 225.418 140.898L195.624 145.312C195.198 145.373 194.763 145.324 194.362 145.168L148.255 127.377C147.727 127.169 147.285 126.787 147.002 126.294C146.719 125.802 146.611 125.228 146.698 124.666L152.846 86.2547Z" fill="#3F3D56"/>
<path d="M153.334 84.1215C153.358 84.0516 153.401 83.9897 153.458 83.9424C153.477 83.9273 153.497 83.9137 153.518 83.9015C153.537 83.8941 153.557 83.882 153.576 83.8745C153.669 83.8373 153.772 83.8356 153.866 83.8696L154.825 84.2081L201.709 100.747L212.681 99.5872L218.821 98.9396L231.817 97.5638L232.979 97.4419L233.205 97.4169C233.303 97.408 233.4 97.4334 233.481 97.4888C233.561 97.5441 233.62 97.6259 233.647 97.7199C233.653 97.7416 233.657 97.7638 233.659 97.7863C233.669 97.8756 233.649 97.9655 233.603 98.0426C233.557 98.1197 233.487 98.1798 233.404 98.2137C233.367 98.229 233.329 98.2394 233.289 98.2447L231.708 98.4104L218.91 99.7632L214.436 100.235L201.703 101.58C201.666 101.582 201.629 101.581 201.592 101.578C201.569 101.572 201.547 101.565 201.519 101.558L153.748 84.7107L153.586 84.6533C153.549 84.6411 153.514 84.622 153.484 84.597C153.412 84.5439 153.358 84.4693 153.331 84.3838C153.304 84.2983 153.305 84.2064 153.334 84.1215Z" fill="#3F3D56"/>
<path d="M194.862 146.243C194.754 146.225 194.658 146.166 194.593 146.078C194.529 145.99 194.502 145.88 194.518 145.772L201.249 101.105C201.265 100.997 201.324 100.899 201.412 100.834C201.501 100.769 201.612 100.741 201.72 100.757L201.724 100.758C201.832 100.775 201.929 100.835 201.993 100.923C202.058 101.011 202.085 101.121 202.068 101.229L195.337 145.895C195.321 146.004 195.262 146.102 195.174 146.167C195.085 146.232 194.975 146.26 194.866 146.243H194.862Z" fill="#3F3D56"/>
<path d="M211.923 143.409L207.447 143.882L212.683 99.586C212.683 99.586 218.662 98.5035 218.822 98.9376C218.92 99.1967 211.966 143.125 211.923 143.409Z" fill="#3F3D56"/>
<path d="M153.587 84.6527L153.466 104.853L189.227 118.479L202.069 101.229L153.587 84.6527Z" fill="#3F3D56"/>
<path d="M232.981 97.4426C232.682 97.0669 232.279 96.7869 231.823 96.6374L186.196 81.4397C186.068 81.3966 185.937 81.3646 185.803 81.3439C185.658 81.3189 185.51 81.3079 185.362 81.3109L185.436 80.8485L185.893 80.5178L196.728 72.6733L232.912 83.7626L232.975 96.3053L232.981 97.4426Z" fill="#3F3D56"/>
<path d="M155.409 117.081C155.461 117.086 155.511 117.096 155.561 117.113L169.56 121.711C169.735 121.768 169.881 121.893 169.964 122.058C170.047 122.222 170.062 122.413 170.004 122.588C169.947 122.764 169.822 122.909 169.657 122.992C169.493 123.075 169.302 123.09 169.126 123.032L155.127 118.434C154.964 118.381 154.827 118.269 154.742 118.121C154.656 117.973 154.628 117.799 154.663 117.631C154.698 117.464 154.793 117.315 154.931 117.214C155.069 117.112 155.239 117.065 155.409 117.081Z" fill="white"/>
<path d="M211.894 201.821C214.966 201.821 217.457 199.33 217.457 196.257C217.457 193.184 214.966 190.693 211.894 190.693C208.821 190.693 206.33 193.184 206.33 196.257C206.33 199.33 208.821 201.821 211.894 201.821Z" fill="#F2F2F2"/>
<path d="M70.0141 222.222C73.087 222.222 75.578 219.731 75.578 216.658C75.578 213.585 73.087 211.094 70.0141 211.094C66.9413 211.094 64.4502 213.585 64.4502 216.658C64.4502 219.731 66.9413 222.222 70.0141 222.222Z" fill="#F2F2F2"/>
<path d="M185.929 38.1491C189.002 38.1491 191.493 35.658 191.493 32.5852C191.493 29.5123 189.002 27.0213 185.929 27.0213C182.856 27.0213 180.365 29.5123 180.365 32.5852C180.365 35.658 182.856 38.1491 185.929 38.1491Z" fill="#F2F2F2"/>
<path d="M195.058 125.264C194.336 125.577 193.555 125.729 192.769 125.707C191.983 125.686 191.212 125.493 190.508 125.141C189.805 124.789 189.188 124.288 188.699 123.671C188.211 123.055 187.864 122.339 187.682 121.574L168.666 119.653L174.94 111.954L192.036 114.958C193.341 114.738 194.682 115.005 195.804 115.707C196.926 116.409 197.751 117.499 198.124 118.769C198.496 120.039 198.39 121.402 197.825 122.599C197.26 123.796 196.275 124.744 195.058 125.264Z" fill="#FFB8B8"/>
<path d="M183.362 122.209L138.986 118.121L138.925 118.051L106.538 80.9411C104.406 77.6757 103.604 73.719 104.295 69.8812C104.985 66.0434 107.117 62.6148 110.253 60.2974C111.988 59.0184 113.975 58.1215 116.082 57.6656C118.189 57.2097 120.368 57.2052 122.477 57.6523C124.586 58.0995 126.576 58.9882 128.316 60.26C130.057 61.5318 131.508 63.1577 132.575 65.0309L152.523 100.058L183.85 112.645L183.362 122.209Z" fill="#E6E6E6"/>
<path d="M294.743 50.8444C293.641 42.761 292.259 34.0823 286.558 28.2471C284.749 26.3956 282.584 24.9296 280.193 23.9375C277.802 22.9454 275.235 22.4477 272.646 22.4745C270.058 22.5013 267.502 23.052 265.132 24.0934C262.762 25.1348 260.627 26.6453 258.857 28.5338C254.707 32.9612 252.874 39.1779 252.707 45.244C252.539 51.3101 253.89 57.3088 255.389 63.1892C263.32 63.3476 271.192 61.7981 278.472 58.6457C280.293 57.8555 282.084 56.9623 284.007 56.4728C285.93 55.9833 287.301 57.2151 289.09 58.074L290.072 56.1936C290.876 57.6897 293.365 57.2462 294.268 55.8077C295.171 54.3693 294.973 52.5271 294.743 50.8444Z" fill="#2F2E41"/>
<path d="M263.304 95.9624L230.906 96.6553C230.408 95.7953 229.671 95.0984 228.785 94.6494C227.899 94.2004 226.901 94.0187 225.913 94.1265C224.925 94.2342 223.99 94.6267 223.222 95.2562C222.453 95.8857 221.884 96.7251 221.583 97.6721C221.283 98.6192 221.264 99.6332 221.53 100.591C221.795 101.548 222.333 102.408 223.078 103.065C223.823 103.723 224.743 104.149 225.726 104.293C226.709 104.437 227.713 104.292 228.615 103.876C232.912 104.121 266.53 108.892 268.535 105.817C270.571 102.696 281.436 91.6818 281.436 91.6818L273.084 79.7918L263.304 95.9624Z" fill="#9E616A"/>
<path d="M271.199 58.8419C279.606 58.8419 286.421 52.0268 286.421 43.6199C286.421 35.2131 279.606 28.3979 271.199 28.3979C262.792 28.3979 255.977 35.2131 255.977 43.6199C255.977 52.0268 262.792 58.8419 271.199 58.8419Z" fill="#9E616A"/>
<path d="M295.58 72.9086C293.786 69.3385 292.914 64.928 289.09 63.7706C286.507 62.9891 276.062 64.1603 273.709 65.4797C269.794 67.6742 273.342 71.7865 271.032 75.6348C268.521 79.8182 261.698 88.2137 259.187 92.3972C257.461 95.2731 263.275 103.715 262.342 106.937C261.408 110.158 261.363 113.774 262.953 116.728C264.376 119.371 262.318 121.71 263.749 124.349C265.237 127.094 267.063 137.356 265.678 140.154L264.751 142.936C273.953 143.477 281.69 132.483 290.835 131.325C293.107 131.037 295.465 130.662 297.337 129.343C300.094 127.401 301.184 123.877 301.865 120.574C305.144 104.429 302.931 87.6517 295.58 72.9086Z" fill="#3F3D56"/>
<path d="M309.376 110.605C308.094 107.106 305.774 91.8096 305.774 91.8096L291.25 91.3838L298.351 108.897L278.974 136.022C278.974 136.022 279.01 136.082 279.076 136.188C278.057 136.025 277.012 136.173 276.079 136.613C275.146 137.052 274.367 137.764 273.845 138.654C273.322 139.543 273.081 140.57 273.151 141.599C273.222 142.629 273.602 143.613 274.241 144.423C274.88 145.233 275.749 145.831 276.734 146.139C277.719 146.447 278.773 146.45 279.76 146.149C280.747 145.848 281.62 145.255 282.265 144.45C282.909 143.644 283.296 142.663 283.373 141.634C283.445 141.675 283.528 141.69 283.609 141.676C283.69 141.662 283.764 141.62 283.818 141.558C285.974 138.852 310.658 114.103 309.376 110.605Z" fill="#9E616A"/>
<path d="M310.853 100.944C309.52 95.3181 308.177 89.6611 305.929 84.3336C303.682 79.0061 300.464 73.9741 295.939 70.3749C294.492 69.2242 292.875 68.2086 291.061 67.8508C289.247 67.493 287.203 67.8934 285.93 69.2331C283.891 71.3769 284.505 74.818 285.252 77.68C287.457 86.1188 289.661 94.5576 291.865 102.996C298.231 102.322 304.597 101.647 310.962 100.972L310.853 100.944Z" fill="#3F3D56"/>
<path d="M289.851 45.7313C289.291 42.0489 288.705 38.3357 287.388 34.8684C286.071 31.4011 283.948 28.1535 280.903 26.1893C276.082 23.0795 269.839 23.6792 264.434 25.4681C260.253 26.8515 256.172 28.9542 253.224 32.3345C250.276 35.7149 248.62 40.5384 249.717 44.9584C255.483 43.5961 261.249 42.2337 267.016 40.8713L266.384 41.3174C268.278 42.2614 269.931 43.6245 271.219 45.303C272.507 46.9814 273.395 48.9313 273.817 51.0045C274.23 53.1028 274.17 55.2666 273.644 57.3393C273.117 59.412 272.137 61.3417 270.773 62.989C274.706 61.5939 278.638 60.1989 282.571 58.8039C284.998 57.9428 287.596 56.9506 289.035 54.742C290.704 52.1813 290.317 48.7872 289.851 45.7313Z" fill="#2F2E41"/>
</g>
<defs>
<clipPath id="clip0_112_289">
<rect width="400" height="299" fill="white"/>
</clipPath>
</defs>
</svg>
