<svg width="1440" height="120" viewBox="0 0 1440 120" fill="none" xmlns="http://www.w3.org/2000/svg">
<g clip-path="url(#clip0_85_211)">
<path d="M0 120L24 115.987C48 112.125 96 103.875 144 94.0125C192 84 240 72 288 70.0125C336 67.875 384 76.125 432 76.0125C480 76.125 528 67.875 576 54C624 40.125 672 19.875 720 16.0125C768 12 816 24 864 25.9875C912 28.125 960 19.875 1008 18C1056 16.125 1104 19.875 1152 18C1200 16.125 1248 7.87497 1296 7.98747C1344 7.87497 1392 16.125 1416 19.9875L1440 24V120H1416C1392 120 1344 120 1296 120C1248 120 1200 120 1152 120C1104 120 1056 120 1008 120C960 120 912 120 864 120C816 120 768 120 720 120C672 120 624 120 576 120C528 120 480 120 432 120C384 120 336 120 288 120C240 120 192 120 144 120C96 120 48 120 24 120H0Z" fill="#5000CA"/>
</g>
<defs>
<clipPath id="clip0_85_211">
<rect width="1440" height="120" fill="white"/>
</clipPath>
</defs>
</svg>
