<svg width="2229" height="154" viewBox="0 0 2229 154" fill="none" xmlns="http://www.w3.org/2000/svg">
<path d="M0 34.3L41.3294 25.75C82.504 17.2 165.627 0.0999756 247.667 0.0999756C330.171 0.0999756 413.294 17.2 495.333 28.5822C577.837 40.1781 660.96 45.5219 743 37.1322C825.504 28.4219 908.627 5.9781 990.667 17.2C1073.17 28.4219 1156.29 74.3781 1238.33 99.8678C1320.84 125.678 1403.96 131.022 1486 114.082C1568.5 96.8219 1651.63 57.2781 1733.67 37.1322C1816.17 17.2 1899.29 17.2 1981.33 28.5822C2063.84 40.1781 2146.96 62.6219 2187.21 74.2178L2229 85.6V154H2187.67C2146.5 154 2063.37 154 1981.33 154C1898.83 154 1815.71 154 1733.67 154C1651.16 154 1568.04 154 1486 154C1403.5 154 1320.37 154 1238.33 154C1155.83 154 1072.71 154 990.667 154C908.163 154 825.04 154 743 154C660.496 154 577.373 154 495.333 154C412.829 154 329.706 154 247.667 154C165.163 154 82.0396 154 41.7938 154H0V34.3Z" fill="#000D6D" fill-opacity="0.19"/>
</svg>
