<svg width="1148" height="91" viewBox="0 0 1148 91" fill="none" xmlns="http://www.w3.org/2000/svg">
<path d="M0 27.3L21.2858 22.75C42.4919 18.2 85.3028 9.09998 127.556 9.09998C170.047 9.09998 212.858 18.2 255.111 24.2572C297.603 30.4281 340.414 33.2718 382.667 28.8072C425.159 24.1718 467.969 12.2281 510.222 18.2C552.714 24.1718 595.525 48.6281 637.778 62.1928C680.27 75.9281 723.081 78.7718 765.333 69.7572C807.825 60.5718 850.636 39.5281 892.889 28.8072C935.381 18.2 978.192 18.2 1020.44 24.2572C1062.94 30.4281 1105.75 42.3718 1126.47 48.5428L1148 54.6V91H1126.71C1105.51 91 1062.7 91 1020.44 91C977.952 91 935.142 91 892.889 91C850.397 91 807.586 91 765.333 91C722.841 91 680.031 91 637.778 91C595.286 91 552.475 91 510.222 91C467.73 91 424.919 91 382.667 91C340.175 91 297.364 91 255.111 91C212.619 91 169.808 91 127.556 91C85.0636 91 42.2528 91 21.525 91H0V27.3Z" fill="white"/>
</svg>
